<svg xmlns="http://www.w3.org/2000/svg" width="63" height="51.698" viewBox="0 0 63 51.698">
  <g id="_0" data-name="0" transform="translate(-292.339 -44.302)">
    <ellipse id="Ellipse_41" data-name="Ellipse 41" cx="19.5" cy="1.5" rx="19.5" ry="1.5" transform="translate(304.339 81)" fill="#ff8782"/>
    <g id="skewers" transform="translate(296.661 44.302)" opacity="0.7">
      <circle id="Ellipse_16" data-name="Ellipse 16" cx="18.729" cy="18.729" r="18.729" transform="translate(0.565 0.565)" fill="#f7f0e6"/>
      <g id="Group_215" data-name="Group 215" transform="translate(2.449 3.794)">
        <circle id="Ellipse_17" data-name="Ellipse 17" cx="13.562" cy="13.562" r="13.562" transform="translate(3.283 1.937)" fill="#eee2d4"/>
        <path id="Path_234" data-name="Path 234" d="M53.182,203.423c.007-.01.011-.021.018-.032a3.144,3.144,0,0,0,.217-.379c.012-.026.021-.051.032-.077a2.788,2.788,0,0,0,.151-.433l.008-.032a2.374,2.374,0,0,0,.067-.477h0a1.659,1.659,0,0,0-.445-1.262,2.134,2.134,0,0,0-2.692.048L49.12,199.36l.913-.913a.646.646,0,0,0,0-.913l-1.37-1.37a.646.646,0,0,0-.913,0l-.913.913-1.417-1.417c.007-.01.011-.021.018-.031a3.148,3.148,0,0,0,.217-.38c.012-.026.021-.051.032-.077a2.788,2.788,0,0,0,.151-.434l.007-.031a1.8,1.8,0,0,0-.378-1.739,2.134,2.134,0,0,0-2.692.048L41.356,191.6l.913-.913a.646.646,0,0,0,0-.913L40.9,188.4a.646.646,0,0,0-.913,0l-.913.913L37.655,187.9c.007-.01.011-.021.018-.031a3.148,3.148,0,0,0,.217-.38c.012-.026.021-.051.032-.077a2.788,2.788,0,0,0,.151-.434l.007-.031A1.8,1.8,0,0,0,37.7,185.2a2.134,2.134,0,0,0-2.692.048l-1.418-1.418a.646.646,0,1,0-.913.913l1.418,1.418c-.013.02-.024.04-.037.059h0a2.747,2.747,0,0,0-.455,1.343c0,.04-.006.08-.006.12a1.967,1.967,0,0,0,.015.212c.007.061.016.121.029.179s.025.111.043.165a1.582,1.582,0,0,0,.086.209c.019.039.035.079.057.116a1.46,1.46,0,0,0,.22.288,2.134,2.134,0,0,0,2.692-.048l1.418,1.418-.913.913a.645.645,0,0,0,0,.913l1.37,1.37a.646.646,0,0,0,.913,0l.913-.913h0l1.418,1.418c-.013.02-.024.04-.037.059h0a2.747,2.747,0,0,0-.455,1.343c0,.04-.006.08-.006.12a1.965,1.965,0,0,0,.015.212c.007.061.016.121.029.179s.025.111.043.165a1.582,1.582,0,0,0,.086.209c.019.039.035.079.057.116a1.46,1.46,0,0,0,.22.288,1.479,1.479,0,0,0,.313.239,1.713,1.713,0,0,0,.765.215,2.2,2.2,0,0,0,.426-.02,2.89,2.89,0,0,0,1.188-.482l1.418,1.418-.913.913a.645.645,0,0,0,0,.913l1.37,1.37a.646.646,0,0,0,.913,0h0l.913-.913,1.418,1.418c-.013.02-.024.04-.037.06h0a2.748,2.748,0,0,0-.455,1.343c0,.04-.006.08-.006.12a1.966,1.966,0,0,0,.015.212c.007.061.016.121.029.18s.025.111.043.165a1.572,1.572,0,0,0,.086.209c.019.039.035.079.057.116a1.46,1.46,0,0,0,.22.288,2.134,2.134,0,0,0,2.692-.048l1.418,1.418a.646.646,0,1,0,.913-.913Z" transform="translate(-32.49 -173.598)" fill="#eee2d4"/>
        <path id="Path_235" data-name="Path 235" d="M187.905,71.54l-1.827-1.827,1.37-1.37-.009-.008a.635.635,0,0,0-.09-.924,3.623,3.623,0,0,0-3.951-.378l-1.021-1.021c.007-.01.011-.021.018-.032a3.139,3.139,0,0,0,.217-.379c.012-.026.021-.052.033-.078a2.783,2.783,0,0,0,.151-.433l.007-.032a2.373,2.373,0,0,0,.067-.477h0a1.658,1.658,0,0,0-.445-1.262,2.134,2.134,0,0,0-2.691.048l-1.418-1.418,1.37-1.37-.009-.008a.635.635,0,0,0-.091-.924,3.623,3.623,0,0,0-3.951-.378l-1.021-1.021c.007-.011.012-.022.018-.032a3.15,3.15,0,0,0,.216-.379c.012-.026.021-.052.033-.078a2.791,2.791,0,0,0,.151-.433l.008-.032a2.374,2.374,0,0,0,.067-.477h0a1.658,1.658,0,0,0-.445-1.262,2.134,2.134,0,0,0-2.691.048l-1.418-1.418,1.37-1.37-.009-.008a.635.635,0,0,0-.091-.924,3.623,3.623,0,0,0-3.951-.378l-.973-.973a.646.646,0,0,0-.913.913l.973.973a3.623,3.623,0,0,0,.378,3.951.635.635,0,0,0,.924.091l.008.009.039-.039h0l1.331-1.331,1.418,1.418c-.013.02-.024.04-.037.06h0a2.747,2.747,0,0,0-.455,1.342c0,.04-.006.08-.006.12a1.957,1.957,0,0,0,.015.212c.007.061.016.121.029.179s.025.111.043.165a1.571,1.571,0,0,0,.087.209c.019.039.035.079.057.116a1.457,1.457,0,0,0,.22.288,2.02,2.02,0,0,0,2.378.147,3.247,3.247,0,0,0,.314-.2l1.022,1.022a3.623,3.623,0,0,0,.378,3.951.635.635,0,0,0,.924.091l.008.009.039-.039h0l1.331-1.331,1.418,1.418c-.013.02-.024.04-.037.06h0a2.747,2.747,0,0,0-.455,1.342c0,.04-.006.08-.006.12a1.965,1.965,0,0,0,.015.212c.007.061.016.121.029.179s.025.111.043.165a1.568,1.568,0,0,0,.087.209c.019.039.035.079.057.116a1.458,1.458,0,0,0,.22.288,2.02,2.02,0,0,0,2.378.147,3.25,3.25,0,0,0,.314-.2l1.022,1.022a3.623,3.623,0,0,0,.378,3.951.635.635,0,0,0,.924.091L183.8,72l.039-.039h0l1.331-1.331,1.827,1.827a.646.646,0,1,0,.913-.913Z" transform="translate(-155.749 -50.344)" fill="#eee2d4"/>
        <path id="Path_236" data-name="Path 236" d="M120.338,137.279h0a.646.646,0,0,0,0-.913l-.457-.457.532-.532a.639.639,0,0,0,.549-.173.63.63,0,0,0,.062-.072.646.646,0,0,0-.133-.9,3.245,3.245,0,0,0-3.7-.1l-1.045-1.045.018-.04c.015-.033.031-.065.044-.1a1.932,1.932,0,0,0,.09-.3c.008-.039.01-.078.015-.117a1.954,1.954,0,0,0,.019-.2c0-.054,0-.107,0-.161s-.008-.106-.015-.158-.013-.113-.026-.169a1.942,1.942,0,0,0-.078-.264,1.919,1.919,0,0,0-2.639-1.062l-1.454-1.454a.646.646,0,0,0,0-.913l-.457-.457.532-.532a.626.626,0,0,0,.611-.244.646.646,0,0,0-.133-.9,3.245,3.245,0,0,0-3.7-.1l-1.045-1.045.017-.04c.015-.033.031-.066.044-.1a1.923,1.923,0,0,0,.089-.3c.008-.039.01-.078.015-.117a1.958,1.958,0,0,0,.019-.2c0-.054,0-.107,0-.161s-.008-.105-.015-.158-.013-.113-.026-.17a1.948,1.948,0,0,0-.077-.26,1.919,1.919,0,0,0-2.641-1.066l-1.454-1.454a.646.646,0,0,0,0-.913l-.457-.457.532-.532a.639.639,0,0,0,.549-.173.646.646,0,0,0-.071-.975,3.245,3.245,0,0,0-3.7-.1l-.507-.507a.646.646,0,0,0-.913.913l.507.507a3.245,3.245,0,0,0,.1,3.7.639.639,0,0,0,1.148-.478l.532-.532.457.457a.646.646,0,0,0,.913,0l1.454,1.454c-.024.051-.049.1-.068.153a1.953,1.953,0,0,0-.077.26c-.012.056-.018.113-.026.17s-.013.105-.015.158,0,.107,0,.161a1.955,1.955,0,0,0,.019.2c.005.039.007.078.015.117a1.921,1.921,0,0,0,.089.3c.013.034.029.066.044.1a1.9,1.9,0,0,0,.114.217c.018.03.036.06.056.089a1.9,1.9,0,0,0,2.422.645l1.048,1.048a3.245,3.245,0,0,0,.1,3.7.646.646,0,0,0,.9.133.639.639,0,0,0,.245-.611l.532-.532.457.457a.646.646,0,0,0,.913,0l1.454,1.454c-.023.048-.047.1-.066.144h0a1.946,1.946,0,0,0-.08.269c-.012.056-.018.112-.025.169s-.013.106-.015.159,0,.107,0,.16a1.946,1.946,0,0,0,.019.2c.006.039.007.077.015.116a1.931,1.931,0,0,0,.09.3c.013.034.029.066.043.1a1.9,1.9,0,0,0,.115.218c.018.03.036.059.056.088a1.9,1.9,0,0,0,1.592.84c.011,0,.021,0,.032,0a1.932,1.932,0,0,0,.8-.192l1.048,1.048a3.246,3.246,0,0,0,.1,3.7.646.646,0,0,0,.9.133.639.639,0,0,0,.245-.611l.532-.532.457.457a.646.646,0,0,0,.913,0l.913.913a.646.646,0,0,0,.913-.913Z" transform="translate(-94.119 -111.973)" fill="#eee2d4"/>
      </g>
      <g id="Group_216" data-name="Group 216" transform="translate(7.688 13.247)">
        <path id="Path_237" data-name="Path 237" d="M107.224,237.785l-2.74,2.74a.646.646,0,0,1-.913,0l-1.37-1.37a.646.646,0,0,1,0-.913l2.74-2.74a.646.646,0,0,1,.913,0l1.37,1.37A.646.646,0,0,1,107.224,237.785Z" transform="translate(-102.011 -230.824)" fill="#fbe6a5"/>
        <circle id="Ellipse_18" data-name="Ellipse 18" cx="1.937" cy="1.937" r="1.937" transform="translate(5.558)" fill="#fbe6a5"/>
        <circle id="Ellipse_19" data-name="Ellipse 19" cx="1.937" cy="1.937" r="1.937" transform="translate(13.778 8.22)" fill="#fbe6a5"/>
      </g>
      <g id="Group_217" data-name="Group 217" transform="translate(8.947 8.947)">
        <path id="Path_238" data-name="Path 238" d="M231.946,228.786a.328.328,0,0,0-.041-.5,2.584,2.584,0,0,0-3.614,3.614.328.328,0,0,0,.5.041l.667-.667.457.457a.646.646,0,0,0,.913,0l.913-.913a.646.646,0,0,0,0-.913l-.457-.457Z" transform="translate(-219.563 -219.563)" fill="#e1bc96"/>
        <path id="Path_239" data-name="Path 239" d="M122.881,119.721a.328.328,0,0,0-.041-.5,2.584,2.584,0,0,0-3.614,3.614.328.328,0,0,0,.5.041l.667-.667.457.457a.646.646,0,0,0,.913,0l.913-.913a.646.646,0,0,0,0-.913l-.457-.457Z" transform="translate(-118.718 -118.718)" fill="#e1bc96"/>
        <path id="Path_240" data-name="Path 240" d="M341.011,337.851a.328.328,0,0,0-.041-.5,2.584,2.584,0,0,0-3.614,3.614.328.328,0,0,0,.5.041l.667-.667.457.457a.646.646,0,0,0,.913,0l.913-.913a.646.646,0,0,0,0-.913l-.457-.457Z" transform="translate(-320.408 -320.408)" fill="#e1bc96"/>
      </g>
      <g id="Group_218" data-name="Group 218" transform="translate(14.543 4.497)">
        <path id="Path_241" data-name="Path 241" d="M399.616,266.315c-1.009,1.009-.8,2.849.457,4.11l3.653-3.653C402.465,265.51,400.625,265.306,399.616,266.315Z" transform="translate(-383.449 -250.148)" fill="#fbe6a5"/>
        <path id="Path_242" data-name="Path 242" d="M296.61,163.309c-1.009,1.009-.8,2.849.457,4.11l3.653-3.653C299.459,162.5,297.619,162.3,296.61,163.309Z" transform="translate(-288.206 -154.905)" fill="#fbe6a5"/>
        <path id="Path_243" data-name="Path 243" d="M193.605,60.3c-1.009,1.009-.8,2.849.457,4.11l3.653-3.653C196.454,59.5,194.614,59.294,193.605,60.3Z" transform="translate(-192.965 -59.662)" fill="#fbe6a5"/>
      </g>
      <ellipse id="Ellipse_20" data-name="Ellipse 20" cx="1.937" cy="2.584" rx="1.937" ry="2.584" transform="translate(19.751 13.358) rotate(-135)" fill="#ff8782"/>
      <path id="Path_244" data-name="Path 244" d="M241.987,124.935c-1.009,1.009-2.44,1.213-3.2.457a1.658,1.658,0,0,1-.445-1.262,2.111,2.111,0,0,0-.011,2.632c.757.757,2.188.552,3.2-.457a2.946,2.946,0,0,0,.9-1.935A3.348,3.348,0,0,1,241.987,124.935Z" transform="translate(-219.953 -114.775)" fill="#ff6464"/>
      <ellipse id="Ellipse_21" data-name="Ellipse 21" cx="1.937" cy="2.584" rx="1.937" ry="2.584" transform="translate(27.513 21.121) rotate(-135)" fill="#ff8782"/>
      <g id="Group_219" data-name="Group 219" transform="translate(3.311 13.358)">
        <ellipse id="Ellipse_22" data-name="Ellipse 22" cx="1.937" cy="2.584" rx="1.937" ry="2.584" transform="translate(2.74 6.394) rotate(-135)" fill="#ffaf5d"/>
        <ellipse id="Ellipse_23" data-name="Ellipse 23" cx="1.937" cy="2.584" rx="1.937" ry="2.584" transform="translate(10.503 14.156) rotate(-135)" fill="#ffaf5d"/>
        <ellipse id="Ellipse_24" data-name="Ellipse 24" cx="1.937" cy="2.584" rx="1.937" ry="2.584" transform="translate(18.266 21.92) rotate(-135)" fill="#ffaf5d"/>
      </g>
      <path id="Path_245" data-name="Path 245" d="M210.23,340.791l-2.74,2.74a.646.646,0,0,1-.913,0l-1.37-1.37a.646.646,0,0,1,0-.913l2.74-2.74a.646.646,0,0,1,.913,0l1.37,1.37A.646.646,0,0,1,210.23,340.791Z" transform="translate(-189.566 -312.82)" fill="#fbe6a5"/>
      <path id="Path_246" data-name="Path 246" d="M32.937,5.651A19.294,19.294,0,0,0,5.651,32.937,19.294,19.294,0,0,0,32.937,5.651Zm-.8,26.486A18.163,18.163,0,0,1,6.45,6.45,18.163,18.163,0,0,1,32.137,32.137Z"/>
      <path id="Path_247" data-name="Path 247" d="M63.462,195.962a2.464,2.464,0,1,0-3.481-3.481l-.6-.6.97-.97a1.211,1.211,0,0,0,0-1.713l-.914-.914a.565.565,0,1,0-.8.8l.914.914a.081.081,0,0,1,0,.114l-2.74,2.74a.081.081,0,0,1-.114,0l-1.37-1.37a.081.081,0,0,1,0-.114l1.716-1.716a.565.565,0,0,0-.741-.849l-.6-.6a3.485,3.485,0,0,0,.679-1.585,2.273,2.273,0,0,0-.594-1.983,2.747,2.747,0,0,0-3.567.086l-.6-.6.97-.97a1.212,1.212,0,0,0,0-1.713l-1.37-1.37a1.212,1.212,0,0,0-1.713,0l-.97.97-.6-.6a2.464,2.464,0,1,0-3.481-3.481l-1-1a.565.565,0,1,0-.8.8l1,1a2.747,2.747,0,0,0-.086,3.567,2.2,2.2,0,0,0,1.582.617,3.369,3.369,0,0,0,1.985-.7l.6.6-.97.97a1.212,1.212,0,0,0,0,1.713l1.37,1.37a1.212,1.212,0,0,0,1.713,0l.97-.97.6.6a2.747,2.747,0,0,0-.086,3.567,2.2,2.2,0,0,0,1.582.616A3.369,3.369,0,0,0,54.9,189l.6.6-.97.97a1.212,1.212,0,0,0,0,1.713l1.37,1.37a1.212,1.212,0,0,0,1.713,0l.97-.97.6.6a3.485,3.485,0,0,0-.679,1.585,2.273,2.273,0,0,0,.594,1.983,2.2,2.2,0,0,0,1.582.616,3.369,3.369,0,0,0,1.985-.7l1,1a.565.565,0,1,0,.8-.8Zm-19.094-15.44c-.525-.525-.317-1.621.454-2.394l0,0,0,0a2.4,2.4,0,0,1,1.611-.745,1.081,1.081,0,0,1,.783.291c.526.526.317,1.623-.456,2.4h0C45.991,180.839,44.894,181.047,44.368,180.521Zm4.681,4.567a.081.081,0,0,1-.114,0l-1.37-1.37a.081.081,0,0,1,0-.114l2.74-2.74a.081.081,0,0,1,.114,0l1.37,1.37a.081.081,0,0,1,0,.114Zm3.083,3.2c-.526-.526-.317-1.623.456-2.4h0a2.4,2.4,0,0,1,1.613-.746,1.081,1.081,0,0,1,.783.291,1.174,1.174,0,0,1,.274,1.024,2.485,2.485,0,0,1-.729,1.371l0,0,0,0C53.754,188.6,52.657,188.81,52.132,188.285Zm7.763,7.763a1.174,1.174,0,0,1-.274-1.024,2.486,2.486,0,0,1,.73-1.373h0a2.4,2.4,0,0,1,1.614-.747,1.081,1.081,0,0,1,.783.291c.526.526.317,1.624-.457,2.4S60.421,196.574,59.895,196.048Z" transform="translate(-39.288 -162.541)"/>
      <path id="Path_248" data-name="Path 248" d="M196.338,62.234l1.427-1.427a.565.565,0,0,0,0-.8,4.22,4.22,0,0,0-2.487-1.242,2.994,2.994,0,0,0-1.98.428l-.643-.643a2.747,2.747,0,0,0,.086-3.567,2.273,2.273,0,0,0-1.983-.594,3.485,3.485,0,0,0-1.585.679l-.6-.6L190,53.044a.565.565,0,0,0,0-.8,3.676,3.676,0,0,0-4.465-.812l-.644-.644a2.747,2.747,0,0,0,.086-3.567.565.565,0,0,0-.8.8c.526.526.317,1.624-.457,2.4s-1.871.983-2.4.457-.317-1.624.457-2.4a2.824,2.824,0,0,1,.5-.4.565.565,0,1,0-.6-.958c-.091.057-.179.12-.266.185l-.6-.6,1.427-1.427a.565.565,0,0,0,0-.8,3.676,3.676,0,0,0-4.465-.812l-1.014-1.014a.565.565,0,1,0-.8.8l1.014,1.014a3.676,3.676,0,0,0,.812,4.465.565.565,0,0,0,.8,0l1.427-1.427.6.6a2.747,2.747,0,0,0-.086,3.567,2.2,2.2,0,0,0,1.582.616,3.369,3.369,0,0,0,1.985-.7l.644.644a3.676,3.676,0,0,0,.812,4.465.565.565,0,0,0,.8,0l1.427-1.427.6.6a2.747,2.747,0,0,0-.086,3.567,2.2,2.2,0,0,0,1.582.617,3.369,3.369,0,0,0,1.985-.7l.644.644a3.676,3.676,0,0,0,.812,4.465.565.565,0,0,0,.8,0l1.427-1.427,1.427,1.427a.565.565,0,0,0,.8-.8ZM178.218,47.7a2.25,2.25,0,0,1-.092-2.876l0,0,0,0a1.719,1.719,0,0,1,1.239-.477,2.861,2.861,0,0,1,1.637.568Zm7.763,7.763a2.249,2.249,0,0,1-.089-2.879,1.718,1.718,0,0,1,1.241-.479,2.862,2.862,0,0,1,1.637.568Zm3.107,3.172c-.526-.526-.317-1.624.457-2.4a2.486,2.486,0,0,1,1.373-.73,1.687,1.687,0,0,1,.239-.018,1.082,1.082,0,0,1,.785.291c.526.526.317,1.623-.456,2.4h0C190.712,58.955,189.614,59.164,189.089,58.638Zm4.656,4.591a2.248,2.248,0,0,1-.09-2.878h0a1.713,1.713,0,0,1,1.238-.475,2.355,2.355,0,0,1,.26.015,2.943,2.943,0,0,1,1.38.55Z" transform="translate(-162.545 -39.287)"/>
      <path id="Path_249" data-name="Path 249" d="M130.6,129.8l.057-.057a1.213,1.213,0,0,0,0-1.713l-.057-.057.267-.267h0a.887.887,0,0,0,.257-.693.9.9,0,0,0-.361-.656,3.168,3.168,0,0,0-3.666-.06l-.653-.653a2.5,2.5,0,0,0-3.447-3.447l-.617-.617.057-.057a1.211,1.211,0,0,0,0-1.713l-.057-.057.267-.267a.887.887,0,0,0,.257-.693.9.9,0,0,0-.361-.656,3.168,3.168,0,0,0-3.666-.06l-.653-.653a2.5,2.5,0,0,0-3.448-3.448l-.616-.616.057-.057a1.213,1.213,0,0,0,0-1.713l-.057-.057.267-.267a.887.887,0,0,0,.257-.693.9.9,0,0,0-.361-.656,3.168,3.168,0,0,0-3.666-.06l-.55-.55a.565.565,0,0,0-.8.8l.55.55a3.168,3.168,0,0,0,.06,3.666.9.9,0,0,0,.656.361l.065,0a.887.887,0,0,0,.627-.26l.267-.267.057.057a1.211,1.211,0,0,0,1.713,0l.057-.057.617.617a2.5,2.5,0,0,0,3.447,3.447l.653.653a3.168,3.168,0,0,0,.06,3.666.9.9,0,0,0,.656.361l.065,0a.887.887,0,0,0,.627-.26l.267-.267.057.057a1.213,1.213,0,0,0,1.713,0l.057-.057.616.616a2.5,2.5,0,0,0,3.448,3.448l.653.653a3.168,3.168,0,0,0,.06,3.666.9.9,0,0,0,.656.361l.065,0a.887.887,0,0,0,.627-.26l.267-.267.057.057a1.211,1.211,0,0,0,1.713,0l.057-.057.514.514a.565.565,0,1,0,.8-.8ZM112.444,113.44a.079.079,0,0,1-.057-.024l-.457-.457a.565.565,0,0,0-.8,0l-.457.457a2.019,2.019,0,0,1,2.74-2.74l-.457.457a.565.565,0,0,0,0,.8l.457.457a.081.081,0,0,1,0,.114l-.913.913A.079.079,0,0,1,112.444,113.44Zm2.683,3.63a1.374,1.374,0,0,1,0-1.94h0a1.372,1.372,0,1,1,0,1.942Zm5.48,4.567-.457-.457a.565.565,0,0,0-.8,0l-.457.457a2.031,2.031,0,0,1,.342-2.4h0v0a2.031,2.031,0,0,1,2.4-.342l-.457.457a.565.565,0,0,0,0,.8l.457.457a.081.081,0,0,1,0,.114l-.913.913A.081.081,0,0,1,120.606,121.636Zm2.74,3.653a1.372,1.372,0,0,1,0-1.94h0a1.372,1.372,0,0,1,1.942,1.939l0,0,0,0A1.374,1.374,0,0,1,123.346,125.29Zm5.537,4.59a.079.079,0,0,1-.057-.024l-.457-.457a.565.565,0,0,0-.8,0l-.457.457a2.019,2.019,0,0,1,2.74-2.74l-.457.457a.565.565,0,0,0,0,.8l.457.457a.081.081,0,0,1,0,.114l-.913.913A.079.079,0,0,1,128.883,129.88Z" transform="translate(-100.913 -100.916)"/>
    </g>
  </g>
</svg>
