<svg xmlns="http://www.w3.org/2000/svg" width="63" height="59.698" viewBox="0 0 63 59.698">
  <g id="_1" data-name="1" transform="translate(-50 -42.302)">
    <ellipse id="Ellipse_39" data-name="Ellipse 39" cx="19.5" cy="1.5" rx="19.5" ry="1.5" transform="translate(62 87)" fill="#ffba31"/>
    <g id="burger" transform="matrix(0.914, -0.407, 0.407, 0.914, 50.611, 57.173)" opacity="0.7">
      <path id="Path_197" data-name="Path 197" d="M61.8,396.789a2.9,2.9,0,0,0-1.12-.208c-2.1,0-2.1,1.481-4.2,1.481s-2.1-1.481-4.2-1.481-2.1,1.481-4.2,1.481-2.1-1.481-4.2-1.481-2.1,1.481-4.2,1.481-2.1-1.481-4.2-1.481a2.9,2.9,0,0,0-1.121.209,2.376,2.376,0,0,1-2.467-.4v2.877a4.279,4.279,0,0,0,4.279,4.279H59.639a4.279,4.279,0,0,0,4.279-4.279v-2.626a2.381,2.381,0,0,1-2.12.151Zm0,0" transform="translate(-29.634 -368.081)" fill="#f5c86e"/>
      <path id="Path_198" data-name="Path 198" d="M38.43,10c-8.492,0-15.52,4.862-16.7,11.192A1.6,1.6,0,0,0,23.3,23.086H53.559a1.6,1.6,0,0,0,1.575-1.894C53.95,14.862,46.922,10,38.43,10Zm0,0" transform="translate(-20.148 -9.286)" fill="#f5c86e"/>
      <path id="Path_199" data-name="Path 199" d="M54.821,184.629a1.6,1.6,0,0,1-1.262.616H23.3a1.591,1.591,0,0,1-1.093-.431,2.084,2.084,0,0,0-.51,1.371,2.279,2.279,0,0,0,3.2,2,2.9,2.9,0,0,1,1.121-.209c2.1,0,2.1,1.481,4.2,1.481s2.1-1.481,4.2-1.481,2.1,1.481,4.2,1.481,2.1-1.481,4.2-1.481,2.1,1.481,4.2,1.481,2.1-1.481,4.2-1.481a2.9,2.9,0,0,1,1.12.209,2.279,2.279,0,0,0,3.2-2,2.1,2.1,0,0,0-.688-1.556Zm0,0" transform="translate(-20.148 -171.444)" fill="#acd670"/>
      <path id="Path_200" data-name="Path 200" d="M35.422,276.352l-6.008,5.941H42.236a2.9,2.9,0,0,0,2.9-2.9v-.145a2.9,2.9,0,0,0-2.9-2.9H12.9a2.9,2.9,0,0,0-2.9,2.9v.145a2.9,2.9,0,0,0,2.9,2.9H26.347l-5.619-5.619-.322-.322" transform="translate(-9.285 -256.618)" fill="#ff5a5a"/>
      <path id="Path_201" data-name="Path 201" d="M54.792,351.9a2.885,2.885,0,0,1-1.693.546H40.277l-1.534,1.534-1.533-1.534H23.762a2.884,2.884,0,0,1-1.485-.41,2.09,2.09,0,0,0-.577,1.446,2.279,2.279,0,0,0,3.2,2,2.9,2.9,0,0,1,1.121-.209c2.1,0,2.1,1.481,4.2,1.481s2.1-1.481,4.2-1.481,2.1,1.481,4.2,1.481,2.1-1.481,4.2-1.481,2.1,1.481,4.2,1.481,2.1-1.481,4.2-1.481a2.9,2.9,0,0,1,1.12.208,2.279,2.279,0,0,0,3.2-2,2.1,2.1,0,0,0-.717-1.583Zm0,0" transform="translate(-20.149 -326.773)" fill="#acd670"/>
      <path id="Path_202" data-name="Path 202" d="M72.858,231.649a2.9,2.9,0,0,0-1.12-.208c-2.1,0-2.1,1.481-4.2,1.481s-2.1-1.481-4.2-1.481-2.1,1.481-4.2,1.481-2.1-1.481-4.2-1.481-2.1,1.481-4.2,1.481-2.1-1.481-4.2-1.481a2.9,2.9,0,0,0-1.121.209,2.384,2.384,0,0,1-1.617.073v2.926h30.3V231.8a2.389,2.389,0,0,1-1.269-.153Zm0,0" transform="translate(-40.694 -214.914)" fill="#ff5a5a"/>
      <path id="Path_203" data-name="Path 203" d="M89.886,276.674l-.322-.322H84.477l4.1,4.1,2.543-2.543Zm0,0" transform="translate(-78.444 -256.617)" fill="#f5c86e"/>
      <path id="Path_204" data-name="Path 204" d="M155.711,276.352l7.475,7.475,7.542-7.475Zm0,0" transform="translate(-144.591 -256.618)" fill="#f5c86e"/>
      <path id="Path_205" data-name="Path 205" d="M286.805,45.492a15.507,15.507,0,0,1,6.29,2.386,9.8,9.8,0,0,1,3.64,4.2.714.714,0,1,0,1.316-.555A11.221,11.221,0,0,0,293.9,46.7a16.94,16.94,0,0,0-6.872-2.614.714.714,0,0,0-.218,1.411Zm0,0" transform="translate(-265.762 -40.925)"/>
      <path id="Path_206" data-name="Path 206" d="M99.687,126.193a.714.714,0,1,0,.246-.855A.73.73,0,0,0,99.687,126.193Zm0,0" transform="translate(-92.52 -116.269)"/>
      <path id="Path_207" data-name="Path 207" d="M147.858,88.949a.714.714,0,1,0,.242-.852.729.729,0,0,0-.242.852Zm0,0" transform="translate(-137.251 -81.684)"/>
      <path id="Path_208" data-name="Path 208" d="M199.625,126.193a.714.714,0,1,0,.246-.855A.731.731,0,0,0,199.625,126.193Zm0,0" transform="translate(-185.321 -116.269)"/>
      <path id="Path_209" data-name="Path 209" d="M36.563,22.633a3.618,3.618,0,0,0-2.415-3.408V17.438a3.067,3.067,0,0,0,.648-.331,2.82,2.82,0,0,0,1.28-2.367,2.79,2.79,0,0,0-.529-1.643,2.3,2.3,0,0,0,.142-1.322,13.325,13.325,0,0,0-5.913-8.43A20.666,20.666,0,0,0,18.282,0,20.666,20.666,0,0,0,6.789,3.345a13.325,13.325,0,0,0-5.913,8.43,2.3,2.3,0,0,0,.3,1.626A2.778,2.778,0,0,0,.836,14.74a2.819,2.819,0,0,0,1.28,2.367,3.109,3.109,0,0,0,.3.177v1.94A3.618,3.618,0,0,0,0,22.633v.145a3.6,3.6,0,0,0,1.151,2.641,2.816,2.816,0,0,0,.413,3.187v2.577a5,5,0,0,0,4.993,4.993H30A5,5,0,0,0,35,31.183V28.93a2.82,2.82,0,0,0,.634-3.734,3.6,3.6,0,0,0,.931-2.418Zm-1.428,0v.145a2.187,2.187,0,0,1-2.184,2.184H21.877l4.554-4.513H32.95a2.187,2.187,0,0,1,2.184,2.184Zm-24.31-2.184.113.114.733.732-1.533,1.534L7.757,20.449Zm6.742,4.723L13.185,20.79h0l-.341-.341H24.4l-4.772,4.72h0l0,0L18.595,26.2ZM2.28,12.038A11.916,11.916,0,0,1,7.589,4.528a19.226,19.226,0,0,1,10.692-3.1,19.226,19.226,0,0,1,10.692,3.1,11.917,11.917,0,0,1,5.309,7.509.9.9,0,0,1-.873,1.049H3.153a.9.9,0,0,1-.873-1.049Zm.037,2.322a2.325,2.325,0,0,0,.835.155H33.411a2.329,2.329,0,0,0,1.134-.3,1.384,1.384,0,0,1,.1.521A1.412,1.412,0,0,1,34,15.922a1.682,1.682,0,0,1-1.439.2c-.238-.075-.462-.172-.708-.225a3.86,3.86,0,0,0-.809-.082,3.914,3.914,0,0,0-2.51.871,2.635,2.635,0,0,1-3.372,0,4.05,4.05,0,0,0-5.02,0,2.636,2.636,0,0,1-3.372,0,4.051,4.051,0,0,0-5.02,0,2.635,2.635,0,0,1-3.372,0,3.912,3.912,0,0,0-2.51-.871,3.615,3.615,0,0,0-1.391.262,1.685,1.685,0,0,1-1.565-.153,1.412,1.412,0,0,1-.648-1.182,1.376,1.376,0,0,1,.052-.381Zm1.669,3.266a3.469,3.469,0,0,0,1.075-.245,2.46,2.46,0,0,1,1.1-.126,2.583,2.583,0,0,1,1.4.6,4.05,4.05,0,0,0,5.02,0,2.636,2.636,0,0,1,3.372,0,4.05,4.05,0,0,0,5.02,0,2.636,2.636,0,0,1,3.372,0,4.05,4.05,0,0,0,5.019,0,2.525,2.525,0,0,1,1.686-.61,2.312,2.312,0,0,1,.85.155,3.307,3.307,0,0,0,.825.213v1.411H3.844V17.629c.047,0,.095,0,.142,0ZM1.429,22.633a2.187,2.187,0,0,1,2.184-2.184H5.738l3.894,3.894a.715.715,0,0,0,1.01,0L12.68,22.3l2.657,2.657H3.613a2.187,2.187,0,0,1-2.184-2.184Zm.953,3.541a3.623,3.623,0,0,0,1.231.216H16.766l1.324,1.324a.721.721,0,0,0,1.008,0l1.339-1.327H32.95a3.633,3.633,0,0,0,1.186-.2,1.819,1.819,0,0,0,.236-.094c.024-.013.059-.04.088-.038s.05.053.064.085a1.382,1.382,0,0,1,.122.544,1.486,1.486,0,0,1-1.107,1.421,1.691,1.691,0,0,1-1.106-.061,3.607,3.607,0,0,0-1.39-.262,3.912,3.912,0,0,0-2.51.871,2.635,2.635,0,0,1-3.372,0,4.05,4.05,0,0,0-5.02,0,2.635,2.635,0,0,1-3.372,0,4.05,4.05,0,0,0-5.02,0,2.635,2.635,0,0,1-3.372,0,3.913,3.913,0,0,0-2.51-.871,3.607,3.607,0,0,0-1.391.262,1.684,1.684,0,0,1-1.449-.083,1.464,1.464,0,0,1-.747-1.04,1.409,1.409,0,0,1,0-.4c.005-.038.071-.364.106-.351Zm31.187,5.009A3.569,3.569,0,0,1,30,34.747H6.559a3.569,3.569,0,0,1-3.565-3.565V29.489a3.093,3.093,0,0,0,1.822-.046l.037-.012c.055-.019.11-.039.164-.061a2.21,2.21,0,0,1,.851-.156,2.522,2.522,0,0,1,1.686.61,4.05,4.05,0,0,0,5.02,0,2.636,2.636,0,0,1,3.372,0,4.05,4.05,0,0,0,5.02,0,2.636,2.636,0,0,1,3.372,0,4.05,4.05,0,0,0,5.02,0,2.523,2.523,0,0,1,1.686-.61,2.357,2.357,0,0,1,.632.081c.2.054.38.14.576.2a3.081,3.081,0,0,0,1.318.074v1.618Zm0,0"/>
      <path id="Path_210" data-name="Path 210" d="M225.237,88.948a.714.714,0,1,0,.247-.855A.729.729,0,0,0,225.237,88.948Zm0,0" transform="translate(-209.104 -81.683)"/>
      <path id="Path_211" data-name="Path 211" d="M270.356,133.033a.714.714,0,1,0,.246-.855A.73.73,0,0,0,270.356,133.033Zm0,0" transform="translate(-251.001 -122.621)"/>
      <path id="Path_212" data-name="Path 212" d="M241.4,39.015a.714.714,0,1,0-.271-.847.729.729,0,0,0,.271.847Zm0,0" transform="translate(-223.872 -35.014)"/>
    </g>
  </g>
</svg>
