<svg xmlns="http://www.w3.org/2000/svg" width="63" height="54.361" viewBox="0 0 63 54.361">
  <g id="_6" data-name="6" transform="translate(-269 -151.291)">
    <ellipse id="Ellipse_43" data-name="Ellipse 43" cx="19.5" cy="1.5" rx="19.5" ry="1.5" transform="translate(281 190.652)" fill="#ffba31"/>
    <g id="pizza-slice" transform="translate(280.657 151.291)" opacity="0.7">
      <path id="Path_213" data-name="Path 213" d="M61.783,103.025v4.25a1.52,1.52,0,0,0,3.039,0V96.687l3.658,2.493V104.3a1.52,1.52,0,0,0,3.039,0v-3.046l7.756,5.285v3.908a1.52,1.52,0,1,0,3.039,0v-1.837l4.962,3.381V78.43A33.522,33.522,0,0,0,59.543,93.089l2.24,1.526v2.071" transform="translate(-54.368 -72.217)" fill="#ffe192"/>
      <path id="Path_214" data-name="Path 214" d="M42.126,15.422V11.591A1.59,1.59,0,0,0,40.469,10,39.076,39.076,0,0,0,10.825,25.642a1.59,1.59,0,0,0,.378,2.266l3.19,2.174A33.521,33.521,0,0,1,42.126,15.422Zm0,0" transform="translate(-9.218 -9.209)" fill="#ff6e37"/>
      <g id="Group_214" data-name="Group 214" transform="translate(11.661 6.666)">
        <path id="Path_215" data-name="Path 215" d="M148.159,202.874a3.514,3.514,0,1,0-1.839,4.617A3.514,3.514,0,0,0,148.159,202.874Zm0,0" transform="translate(-141.416 -191.511)" fill="#ff5a5a"/>
        <path id="Path_216" data-name="Path 216" d="M296.292,223.37a3.514,3.514,0,1,0-1.839,4.618A3.514,3.514,0,0,0,296.292,223.37Zm0,0" transform="translate(-277.814 -210.384)" fill="#ff5a5a"/>
        <path id="Path_217" data-name="Path 217" d="M375.043,347.9a3.514,3.514,0,0,0,.783,6.69v-6.923a3.517,3.517,0,0,0-.783.233Zm0,0" transform="translate(-354.577 -326.793)" fill="#ff5a5a"/>
        <path id="Path_218" data-name="Path 218" d="M241.3,350.793a3.515,3.515,0,0,0-6.648.578l5.426,3.7A3.515,3.515,0,0,0,241.3,350.793Zm0,0" transform="translate(-227.27 -327.712)" fill="#ff5a5a"/>
        <path id="Path_219" data-name="Path 219" d="M272.932,84.152a33.324,33.324,0,0,0-5.514,1.405,3.515,3.515,0,1,0,5.514-1.405Zm0,0" transform="translate(-257.207 -84.152)" fill="#ff5a5a"/>
      </g>
      <path id="Path_220" data-name="Path 220" d="M32.967.662A2.362,2.362,0,0,0,31.218,0,39.87,39.87,0,0,0,.972,15.958a2.382,2.382,0,0,0,.567,3.395l3.19,2.174h0l1.894,1.29V24.47a.792.792,0,0,0,1.584,0V22.4a.793.793,0,0,0-.346-.655L6.285,20.67a33.317,33.317,0,0,1,2.25-2.8,31.538,31.538,0,0,1,2.62-2.6,32.81,32.81,0,0,1,5.907-4.177A31.553,31.553,0,0,1,20.4,9.487l.43-.174a4.308,4.308,0,1,0,8.059-2.06q1.606-.2,3.227-.237V26.931a4.3,4.3,0,0,0,0,8.142v3.2l-3.723-2.537a.792.792,0,0,0-1.238.655v1.837a.728.728,0,0,1-1.455,0V34.318a.8.8,0,0,0-.051-.28,4.306,4.306,0,1,0-6.978-4.929L17.6,28.379a.792.792,0,0,0-1.238.654V32.08a.727.727,0,0,1-1.455,0V26.963a.793.793,0,0,0-.346-.655L10.9,23.815a.792.792,0,0,0-1.238.654V35.058a.727.727,0,1,1-1.455,0v-4.25a.792.792,0,0,0-1.585,0v4.25a2.312,2.312,0,0,0,4.624,0v-9.09l2.074,1.413v4.7a2.312,2.312,0,0,0,4.624,0V30.532l.656.447h0l5.426,3.7.088.06v3.489a2.312,2.312,0,0,0,4.624,0v-.339l3.724,2.537A.8.8,0,0,0,33.7,39.77V2.383a2.363,2.363,0,0,0-.734-1.72ZM19.988,30.008a2.7,2.7,0,0,1,1.4-1.372,2.723,2.723,0,0,1,3.033,4.394l-2.931-2ZM2.094,17.516a.792.792,0,0,1,.148-.609A38.283,38.283,0,0,1,31.285,1.585h.035a.8.8,0,0,1,.8.8V5.43a34.387,34.387,0,0,0-3.787.3c-.358.048-.717.1-1.073.158a34.2,34.2,0,0,0-5.645,1.439,35.549,35.549,0,0,0-3.8,1.591,32.713,32.713,0,0,0-3.632,2.059,35.585,35.585,0,0,0-3.3,2.436,34.774,34.774,0,0,0-3.01,2.838,33.871,33.871,0,0,0-2.6,3.12q-.151.2-.3.41L2.432,18.044a.791.791,0,0,1-.338-.528Zm25.573-7.141A2.722,2.722,0,0,1,22.5,8.7a31.726,31.726,0,0,1,3.629-.989c.335-.07.671-.136,1.008-.2a2.723,2.723,0,0,1,.532,2.857Zm3.348,21.7a2.723,2.723,0,0,1,1.1-3.412v4.672a2.715,2.715,0,0,1-1.1-1.26Zm0,0" transform="translate(0 0)"/>
      <path id="Path_221" data-name="Path 221" d="M134.111,199.033a4.307,4.307,0,1,0-2.362-2.3A4.3,4.3,0,0,0,134.111,199.033Zm-.935-5.008a2.723,2.723,0,1,1,.028,2.083,2.7,2.7,0,0,1-.028-2.083Zm0,0" transform="translate(-120.529 -175.614)"/>
      <path id="Path_222" data-name="Path 222" d="M282.246,219.526a4.307,4.307,0,1,0-2.362-2.3A4.3,4.3,0,0,0,282.246,219.526Zm-.935-5.008a2.722,2.722,0,1,1,.028,2.083A2.7,2.7,0,0,1,281.311,214.518Zm0,0" transform="translate(-256.929 -194.484)"/>
      <path id="Path_223" data-name="Path 223" d="M78.63,340.514a.792.792,0,1,0-.775-.632A.8.8,0,0,0,78.63,340.514Zm0,0" transform="translate(-71.214 -312.082)"/>
    </g>
  </g>
</svg>
