<svg xmlns="http://www.w3.org/2000/svg" width="130.98" height="111.336" viewBox="0 0 130.98 111.336">
  <g id="BitesBee" transform="translate(-533.762 -396.604)">
    <path id="Path_28" data-name="Path 28" d="M28.965-2.258a7.057,7.057,0,0,1-.519,2.2,6.724,6.724,0,0,1-1.085,1.777,6.2,6.2,0,0,1-1.526,1.29,5.622,5.622,0,0,1-1.872.708,4.945,4.945,0,0,1,2,.582,5.329,5.329,0,0,1,1.714,1.431A5.824,5.824,0,0,1,28.729,7.9a6.139,6.139,0,0,1,.047,2.737,9,9,0,0,1-1.148,3.13,10.369,10.369,0,0,1-1.966,2.375,11.848,11.848,0,0,1-2.485,1.7,16.648,16.648,0,0,1-2.753,1.117,16.971,16.971,0,0,1-2.721.6,18.569,18.569,0,0,1-2.391.173,8.213,8.213,0,0,1-2.108-.283,6.124,6.124,0,0,1-2-.944,5.936,5.936,0,0,1-1.6-1.762,7.911,7.911,0,0,1-.975-2.721,14.588,14.588,0,0,1-.11-3.838A27.02,27.02,0,0,1,9.556,5.04L11.412-1.5a.918.918,0,0,0-.157-.849,1.375,1.375,0,0,0-.315-.283,6.779,6.779,0,0,1,.944-.661,5.745,5.745,0,0,1,1.07-.456,4.681,4.681,0,0,1,1.447-.2,2.668,2.668,0,0,1,2.045.739,1.689,1.689,0,0,1,.44,1.683l-3.272,11.8a12.9,12.9,0,0,0-.283,1.777,6,6,0,0,0,.094,1.856,3.082,3.082,0,0,0,.739,1.463,2.18,2.18,0,0,0,1.683.6A6.98,6.98,0,0,0,18,15.594a7.719,7.719,0,0,0,2.06-1.022,6.6,6.6,0,0,0,1.589-1.557,4.149,4.149,0,0,0,.771-1.966,5.056,5.056,0,0,0-.173-2.076,4.856,4.856,0,0,0-.881-1.683,4.431,4.431,0,0,0-1.353-1.117,3.349,3.349,0,0,0-1.589-.409q-.377-.094-.739-.157a3.017,3.017,0,0,1-.629-.173,1.108,1.108,0,0,1-.409-.267.422.422,0,0,1-.079-.409.912.912,0,0,1,.33-.472,2.292,2.292,0,0,1,.771-.377A11.562,11.562,0,0,0,21.1,1.942a4.652,4.652,0,0,0,1.541-3.13,4.429,4.429,0,0,0-.22-2.06,3.9,3.9,0,0,0-1.07-1.573,5.144,5.144,0,0,0-1.777-1.007,7.184,7.184,0,0,0-2.344-.362,11.26,11.26,0,0,0-3.791.676A13.8,13.8,0,0,0,9.9-3.642,13.234,13.234,0,0,0,7.04-.779,11.336,11.336,0,0,0,5.247,2.9a8.633,8.633,0,0,0-.315,1.982,4.122,4.122,0,0,0,.2,1.573,1.5,1.5,0,0,0,.708.865,1.3,1.3,0,0,0,1.2-.142q.189,0,.346.393a2.946,2.946,0,0,1,.173,1.007,4.524,4.524,0,0,1-.173,1.305,4.057,4.057,0,0,1-.629,1.305A3.3,3.3,0,0,1,5.545,12.2a4.316,4.316,0,0,1-1.966.393,2.8,2.8,0,0,1-1.856-.661A4.363,4.363,0,0,1,.5,10.168,7.409,7.409,0,0,1,.009,7.651a10.276,10.276,0,0,1,.33-2.894A15.886,15.886,0,0,1,2.95-.669,21.419,21.419,0,0,1,7.433-5.215a22.723,22.723,0,0,1,5.694-3.114,17.639,17.639,0,0,1,6.244-1.164A14.313,14.313,0,0,1,24.2-8.8a8.174,8.174,0,0,1,2.988,1.762A5.609,5.609,0,0,1,28.666-4.7,6.462,6.462,0,0,1,28.965-2.258ZM39.126,12.181a.72.72,0,0,1,.456-.3.709.709,0,0,1,.472.063.484.484,0,0,1,.236.409,1.337,1.337,0,0,1-.252.771A8.265,8.265,0,0,1,38.7,14.6a13.822,13.822,0,0,1-2.139,1.589,11.265,11.265,0,0,1-2.611,1.164,6.034,6.034,0,0,1-2.753.2,2.234,2.234,0,0,1-1.18-.519,2.356,2.356,0,0,1-.613-.881,2.765,2.765,0,0,1-.189-1.007,3.733,3.733,0,0,1,.094-.9L31.576,6.33a.918.918,0,0,0-.157-.849A1.375,1.375,0,0,0,31.1,5.2a6.779,6.779,0,0,1,.944-.661,6.492,6.492,0,0,1,1.07-.472,4.372,4.372,0,0,1,1.447-.22,2.637,2.637,0,0,1,2.045.755,1.722,1.722,0,0,1,.44,1.7l-2.265,7.99a.679.679,0,0,0,.063.409q.094.189.472.189a2.493,2.493,0,0,0,1.07-.252,5.472,5.472,0,0,0,1.038-.645,6.692,6.692,0,0,0,.928-.881Q38.78,12.621,39.126,12.181ZM35.949,1.894a2.387,2.387,0,0,1-1.856-.8,2.368,2.368,0,0,1-.6-1.935A3.019,3.019,0,0,1,34.5-2.808a2.943,2.943,0,0,1,2.045-.8,2.387,2.387,0,0,1,1.856.8A2.414,2.414,0,0,1,39-.842a3,3,0,0,1-1.007,1.935A2.943,2.943,0,0,1,35.949,1.894ZM49.318,12.118a.791.791,0,0,1,.456-.315.559.559,0,0,1,.456.063.59.59,0,0,1,.236.425,1.227,1.227,0,0,1-.236.771,6.507,6.507,0,0,1-.849,1.007,14.221,14.221,0,0,1-1.714,1.494,13.609,13.609,0,0,1-2.3,1.384,7.113,7.113,0,0,1-2.6.708,3.319,3.319,0,0,1-1.856-.393,3.58,3.58,0,0,1-1.305-1.227,4.719,4.719,0,0,1-.519-3.759l2.2-7.833a5.112,5.112,0,0,0-1.384.315.971.971,0,0,1-.22-.629,1.755,1.755,0,0,1,.189-.9,2.085,2.085,0,0,1,.724-.8,2.35,2.35,0,0,1,1.353-.346L43.089-1.88a.97.97,0,0,0-.157-.881,1.375,1.375,0,0,0-.315-.283,6.778,6.778,0,0,1,.944-.661,5.632,5.632,0,0,1,1.085-.456,4.834,4.834,0,0,1,1.463-.2,2.625,2.625,0,0,1,2.013.739,1.689,1.689,0,0,1,.44,1.683L47.242,2.744a2.463,2.463,0,0,0,.676.11,4.692,4.692,0,0,0,.771-.031,3.676,3.676,0,0,0,.708-.157,2.213,2.213,0,0,0,.519-.236,1.08,1.08,0,0,1,.236.661,2.063,2.063,0,0,1-.142.959,1.96,1.96,0,0,1-.661.849,2.071,2.071,0,0,1-1.29.362,7.977,7.977,0,0,1-.849-.047,2,2,0,0,1-.629-.142L44.19,13.6a.957.957,0,0,0,.047.582.819.819,0,0,0,.315.362,1.143,1.143,0,0,0,.472.157,1.433,1.433,0,0,0,.519-.031,7.693,7.693,0,0,0,.9-.377,10.329,10.329,0,0,0,1.038-.582,9.52,9.52,0,0,0,1.007-.739A5.764,5.764,0,0,0,49.318,12.118Zm12.835.157a.72.72,0,0,1,.456-.3.654.654,0,0,1,.472.079.529.529,0,0,1,.236.425,1.269,1.269,0,0,1-.283.771,8,8,0,0,1-1.431,1.7,12.258,12.258,0,0,1-1.872,1.4,9.338,9.338,0,0,1-2.139.959,7.715,7.715,0,0,1-2.265.346,6.555,6.555,0,0,1-2.768-.551,5.614,5.614,0,0,1-1.95-1.431,5.052,5.052,0,0,1-1.054-1.966,4.725,4.725,0,0,1-.11-2.123,11.239,11.239,0,0,1,1.117-3.35A8.5,8.5,0,0,1,52.4,5.858a7.417,7.417,0,0,1,2.344-1.416A7.592,7.592,0,0,1,57.4,3.971a4.027,4.027,0,0,1,1.384.252,4.158,4.158,0,0,1,1.243.708,2.927,2.927,0,0,1,.834,1.117,2.572,2.572,0,0,1,.157,1.447,3.346,3.346,0,0,1-.55,1.526,5.117,5.117,0,0,1-1.1,1.18,6.241,6.241,0,0,1-1.431.834,6.851,6.851,0,0,1-1.573.456,3.667,3.667,0,0,1-.959.063,4.886,4.886,0,0,1-.865-.126,3.414,3.414,0,0,0,.063,1.982,2.9,2.9,0,0,0,.818,1.164,2.76,2.76,0,0,0,1.054.551,3.659,3.659,0,0,0,.8.142A3.739,3.739,0,0,0,58.629,15a7.5,7.5,0,0,0,1.353-.692,8.39,8.39,0,0,0,1.227-.959A7.192,7.192,0,0,0,62.152,12.275ZM57.906,6.047a1.331,1.331,0,0,0-.535.173,2.8,2.8,0,0,0-.755.613,7.4,7.4,0,0,0-.865,1.2,9.126,9.126,0,0,0-.834,1.95,4.441,4.441,0,0,0,1.07-.362,4.533,4.533,0,0,0,1.038-.676,4.074,4.074,0,0,0,.8-.944,2.409,2.409,0,0,0,.362-1.164,1.584,1.584,0,0,0-.031-.566A.255.255,0,0,0,57.906,6.047ZM71.5,8.406a1.636,1.636,0,0,1-1.132-.393,1.207,1.207,0,0,1-.44-.928.617.617,0,0,1,.173-.456,3.378,3.378,0,0,1,.362-.315q.189-.142.362-.252t.173-.236a.988.988,0,0,0-.142-.393q-.142-.267-.834-.267a1.6,1.6,0,0,0-.55.11,1.751,1.751,0,0,0-.55.33,1.881,1.881,0,0,0-.425.551,1.569,1.569,0,0,0-.173.739,1.814,1.814,0,0,0,.676,1.321q.676.629,1.51,1.337a10.329,10.329,0,0,1,1.51,1.589,3.263,3.263,0,0,1,.676,2.045,3.421,3.421,0,0,1-.55,1.872,5.071,5.071,0,0,1-1.494,1.494,7.969,7.969,0,0,1-2.155.991,8.8,8.8,0,0,1-2.532.362,5.078,5.078,0,0,1-1.856-.33,4.7,4.7,0,0,1-1.447-.865,3.824,3.824,0,0,1-.928-1.243,3.355,3.355,0,0,1-.33-1.431,2.217,2.217,0,0,1,.6-1.73,1.974,1.974,0,0,1,1.353-.535,1.292,1.292,0,0,1,1.132.488,1.658,1.658,0,0,1,.346.959.945.945,0,0,1-.22.692.661.661,0,0,0-.22.472,1.016,1.016,0,0,0,.377.755,1.1,1.1,0,0,0,.724.346,1.431,1.431,0,0,0,.975-.393,1.306,1.306,0,0,0,.44-1.022,1.394,1.394,0,0,0-.6-.959q-.6-.519-1.321-1.2a8.647,8.647,0,0,1-1.321-1.589,3.871,3.871,0,0,1-.6-2.171,3.166,3.166,0,0,1,.472-1.62A5.117,5.117,0,0,1,64.811,5.1a6.821,6.821,0,0,1,1.872-1.022,6.6,6.6,0,0,1,2.3-.393,7.738,7.738,0,0,1,2.108.252,4.849,4.849,0,0,1,1.463.661,2.771,2.771,0,0,1,.865.928A2.179,2.179,0,0,1,73.7,6.582a1.532,1.532,0,0,1-.252.9,1.855,1.855,0,0,1-.613.566,2.559,2.559,0,0,1-.739.283A3.11,3.11,0,0,1,71.5,8.406Z" transform="translate(533.758 488.209)"/>
    <g id="Group_10" data-name="Group 10" transform="translate(562.422 396.604)">
      <path id="Path_2" data-name="Path 2" d="M592.247,431.914a12.094,12.094,0,0,0,6.132-11.165c-.256-7.43-5.669-12-8.008-12.149-2.455.149-7.81,4.636-8.141,12.066a12.089,12.089,0,0,0,6.008,11.24c.942.537.19,7.959.19,7.959-.711,11.5-.264,37.629-.264,37.629.107,1.537,1.818,1.471,1.818,1.471s1.711.083,1.835-1.446c0,0,.736-26.124.149-37.629C591.966,439.873,591.3,432.443,592.247,431.914Z" transform="translate(-580.735 -407.608)" fill="#e5e5e5"/>
      <path id="Path_3" data-name="Path 3" d="M1255.81,409.974c-.116-1.678-.562-1.38-.562-1.38-.851,2.322-.661,15.174-.661,15.174a.758.758,0,0,1-.653.587c-.066-1.3-.537-10.835-.62-14.306,0,0-.149-1.653-.446-1.537,0,0-.3-.207-.322,1.479-.025,1.6.033,12.752-.215,14.24a1.4,1.4,0,0,1-.165-.05v-.017a.06.06,0,0,1-.083,0v.025a.608.608,0,0,1-.157.041c-.083-1.694-.529-10.81-.62-14.182,0,0-.149-1.653-.446-1.537,0,0-.3-.207-.322,1.479-.033,1.653.033,13.562-.24,14.364a.747.747,0,0,1-.636-.587s.173-12.851-.686-15.174c0,0-.446-.3-.562,1.38s-2.116,15.769.4,18.885,2.6,2.909,2.463,5.322c-.108,1.942-1.38,12.81-1.388,26.678.016.008.025.008.041.017.008,8.851.132,16.529.132,16.529.108,1.521,1.81,1.455,1.81,1.455s1.694.083,1.818-1.438c0,0,.2-7.075.306-15.471.132.05.264.107.4.165.058-14.471-1.306-25.943-1.413-27.943-.132-2.405-.049-2.207,2.463-5.322S1255.917,411.652,1255.81,409.974Z" transform="translate(-1191.081 -407.52)" fill="#e5e5e5"/>
      <g id="Group_1" data-name="Group 1" transform="translate(17.874 0)">
        <path id="Path_4" data-name="Path 4" d="M840.142,481.287a.451.451,0,0,1-.388-.223l-6.1-10.984a.439.439,0,0,1-.041-.339.445.445,0,0,1,.207-.265l1.289-.719a.4.4,0,0,1,.215-.058.451.451,0,0,1,.388.223l6.1,10.992a.438.438,0,0,1,.041.339.445.445,0,0,1-.207.265l-1.289.719A.509.509,0,0,1,840.142,481.287Z" transform="translate(-829.214 -462.741)" fill="#191919"/>
        <rect id="Rectangle_2" data-name="Rectangle 2" width="1.471" height="12.562" transform="translate(4.821 7.122) rotate(-29.059)" fill="#191919"/>
        <ellipse id="Ellipse_1" data-name="Ellipse 1" cx="2.661" cy="3.736" rx="2.661" ry="3.736" transform="translate(0 2.585) rotate(-29.059)" fill="#191919"/>
        <path id="Path_5" data-name="Path 5" d="M807.1,426.8a2.391,2.391,0,0,1,.182-3,1.218,1.218,0,0,0-.182.083c-.876.488-1.033,1.876-.347,3.108s1.95,1.835,2.826,1.347c.058-.033.116-.074.165-.107A2.383,2.383,0,0,1,807.1,426.8Z" transform="translate(-804.2 -421.552)" fill="#686868"/>
      </g>
      <g id="Group_2" data-name="Group 2" transform="translate(40.488 0.007)">
        <path id="Path_6" data-name="Path 6" d="M1055.924,481.287a.45.45,0,0,0,.388-.223l6.1-10.984a.438.438,0,0,0,.041-.339.443.443,0,0,0-.207-.265l-1.289-.719a.4.4,0,0,0-.215-.058.45.45,0,0,0-.388.223l-6.1,10.984a.437.437,0,0,0-.042.339.444.444,0,0,0,.207.264l1.289.719A.4.4,0,0,0,1055.924,481.287Z" transform="translate(-1054.196 -462.748)" fill="#191919"/>
        <rect id="Rectangle_3" data-name="Rectangle 3" width="1.471" height="12.562" transform="translate(1.728 18.094) rotate(-150.941)" fill="#191919"/>
        <ellipse id="Ellipse_2" data-name="Ellipse 2" cx="3.736" cy="2.661" rx="3.736" ry="2.661" transform="translate(4.371 6.531) rotate(-60.941)" fill="#191919"/>
        <path id="Path_7" data-name="Path 7" d="M1132.379,423.266a2.383,2.383,0,0,1,2.719-1.273c-.05-.041-.1-.083-.157-.124-.843-.537-2.14-.008-2.9,1.182s-.678,2.587.165,3.124a1.789,1.789,0,0,0,.174.091A2.394,2.394,0,0,1,1132.379,423.266Z" transform="translate(-1125.131 -419.595)" fill="#686868"/>
      </g>
      <path id="Path_8" data-name="Path 8" d="M811.151,499.014A18.132,18.132,0,0,0,780.2,511.833v22.711a18.132,18.132,0,0,0,36.265,0v-22.7A18.017,18.017,0,0,0,811.151,499.014Z" transform="translate(-762.357 -485.675)" fill="#191919"/>
      <path id="Path_9" data-name="Path 9" d="M822.826,575.055h0A15.929,15.929,0,0,1,806.9,559.129v-22.7A15.929,15.929,0,0,1,822.826,520.5h0a15.929,15.929,0,0,1,15.926,15.926v22.711A15.922,15.922,0,0,1,822.826,575.055Z" transform="translate(-786.85 -510.26)" fill="#ffc545"/>
      <path id="Path_10" data-name="Path 10" d="M809.147,559.087v-22.7a15.926,15.926,0,0,1,14.471-15.86c-.3-.017-.587-.025-.893-.025h0A15.929,15.929,0,0,0,806.8,536.426v22.711a15.929,15.929,0,0,0,15.926,15.926h0c.488,0,.975-.025,1.455-.066A15.934,15.934,0,0,1,809.147,559.087Z" transform="translate(-786.758 -510.261)" fill="#ffba31"/>
      <path id="Path_11" data-name="Path 11" d="M852.2,1094.621H825.424a1.125,1.125,0,0,1-1.124-1.124v-.983a.314.314,0,0,1,.314-.314h28.4a.314.314,0,0,1,.314.314v.983A1.125,1.125,0,0,1,852.2,1094.621Z" transform="translate(-802.812 -1034.712)" fill="#191919"/>
      <rect id="Rectangle_4" data-name="Rectangle 4" width="32.405" height="2.223" transform="translate(19.926 51.653)" fill="#191919"/>
      <rect id="Rectangle_5" data-name="Rectangle 5" width="32.405" height="3.537" transform="translate(19.926 37.471)" fill="#293b54"/>
      <path id="Path_12" data-name="Path 12" d="M970.31,1183.729a1.173,1.173,0,0,0-.984-.529h-3.4a1.175,1.175,0,0,0-1.083,1.636l1.694,3.983a1.175,1.175,0,0,0,2.165,0l1.694-3.983A1.15,1.15,0,0,0,970.31,1183.729Z" transform="translate(-931.657 -1118.191)" fill="#191919"/>
      <g id="Group_3" data-name="Group 3" transform="translate(31.034 34.058)">
        <path id="Path_13" data-name="Path 13" d="M985.682,951.982V950.8a9.132,9.132,0,0,1-.083,1.182Z" transform="translate(-981.815 -939.056)" fill="#191919"/>
        <path id="Path_14" data-name="Path 14" d="M939.8,814.56c2.174.3,3.868,2.818,3.868,5.884V808.7h0C943.659,811.75,941.965,814.254,939.8,814.56Z" transform="translate(-939.8 -808.7)" fill="#191919"/>
      </g>
      <g id="Group_6" data-name="Group 6" transform="translate(0 24.545)">
        <g id="Group_5" data-name="Group 5">
          <path id="Path_15" data-name="Path 15" d="M601.449,705.956a18.986,18.986,0,0,0-3.108-7.422l-.074-.1a11.536,11.536,0,0,0-9.157-4.835H568.837a4.328,4.328,0,0,0-3.388,1.719,5.794,5.794,0,0,0,0,6.926,4.453,4.453,0,0,0,2.446,1.612,4.409,4.409,0,0,0-2.446,1.612,5.628,5.628,0,0,0-1.149,3.463v.331a5.645,5.645,0,0,0,1.149,3.463,4.453,4.453,0,0,0,2.446,1.612,4.41,4.41,0,0,0-2.446,1.612,5.794,5.794,0,0,0,0,6.926,4.315,4.315,0,0,0,3.388,1.719H589.11a10.59,10.59,0,0,0,5.215-1.38,12.955,12.955,0,0,0,4.041-3.587.251.251,0,0,0,.041-.058,19.353,19.353,0,0,0,2.959-7.132A17.624,17.624,0,0,0,601.449,705.956Z" transform="translate(-564.3 -693.6)" fill="#191919"/>
          <path id="Path_16" data-name="Path 16" d="M621.091,742.788a16.193,16.193,0,0,0-.083-18.513A9.425,9.425,0,0,0,613.6,720.3H593.331c-1.289,0-2.331,1.331-2.331,2.975s1.041,2.975,2.331,2.975h12.678a2.131,2.131,0,0,1,0,4.182H593.331c-1.289,0-2.331,1.331-2.331,2.975v.331c0,1.645,1.041,2.975,2.331,2.975h12.678a2.131,2.131,0,0,1,0,4.182H593.331c-1.289,0-2.331,1.331-2.331,2.975s1.041,2.975,2.331,2.975H613.6A9.36,9.36,0,0,0,621.091,742.788Z" transform="translate(-588.793 -718.093)" fill="#f2f2f2"/>
          <g id="Group_4" data-name="Group 4" transform="translate(2.207 2.207)">
            <path id="Path_17" data-name="Path 17" d="M592.528,726.077a3.518,3.518,0,0,1-.6-1.983c0-1.645,1.041-2.975,2.331-2.975h20.273a8.734,8.734,0,0,1,5.347,1.893,8.982,8.982,0,0,0-6.289-2.711H593.33c-1.289,0-2.331,1.331-2.331,2.975A3.026,3.026,0,0,0,592.528,726.077Z" transform="translate(-590.999 -720.3)" fill="#e5e5e5"/>
            <path id="Path_18" data-name="Path 18" d="M591.942,937.083c0-1.645,1.041-2.975,2.331-2.975h12.678a1.93,1.93,0,0,0,1.719-2.091A2.073,2.073,0,0,0,607.413,930a2.37,2.37,0,0,1,.306,1.2A1.93,1.93,0,0,1,606,933.289h-12.67c-1.289,0-2.331,1.331-2.331,2.975a3.023,3.023,0,0,0,1.537,2.8A3.455,3.455,0,0,1,591.942,937.083Z" transform="translate(-591 -912.669)" fill="#e5e5e5"/>
            <path id="Path_19" data-name="Path 19" d="M592.528,812.6a3.517,3.517,0,0,1-.6-1.983v-.331c0-1.645,1.041-2.975,2.331-2.975H606.95a1.93,1.93,0,0,0,1.719-2.091,2.073,2.073,0,0,0-1.256-2.016,2.369,2.369,0,0,1,.306,1.2A1.93,1.93,0,0,1,606,806.489H593.33c-1.289,0-2.331,1.331-2.331,2.975v.33A3.017,3.017,0,0,0,592.528,812.6Z" transform="translate(-590.999 -796.349)" fill="#e5e5e5"/>
          </g>
        </g>
        <path id="Path_20" data-name="Path 20" d="M928.933,742.6c1.6,1.43,5.926,6.389,1.86,11.207,0,0,4.917,6.3-1.967,11.554l4.7-3.421,1.719-6.562-.669-6.479-2.132-3.959C932.429,744.952,928.065,741.845,928.933,742.6Z" transform="translate(-898.693 -738.44)" fill="#191919"/>
      </g>
      <g id="Group_9" data-name="Group 9" transform="translate(34.608 24.545)">
        <g id="Group_8" data-name="Group 8">
          <path id="Path_21" data-name="Path 21" d="M1016.861,703.856a4.409,4.409,0,0,0,2.446-1.612,5.794,5.794,0,0,0,0-6.926,4.315,4.315,0,0,0-3.388-1.719H995.646a11.536,11.536,0,0,0-9.157,4.835l-.075.1a18.741,18.741,0,0,0-3.107,7.422,17.576,17.576,0,0,0,.083,6.471,19.654,19.654,0,0,0,2.959,7.132.289.289,0,0,1,.041.066,13.073,13.073,0,0,0,4.041,3.587,10.59,10.59,0,0,0,5.215,1.38h20.273a4.327,4.327,0,0,0,3.388-1.719,5.794,5.794,0,0,0,0-6.926,4.453,4.453,0,0,0-2.446-1.612,4.409,4.409,0,0,0,2.446-1.612,5.627,5.627,0,0,0,1.149-3.463v-.331a5.645,5.645,0,0,0-1.149-3.463A4.366,4.366,0,0,0,1016.861,703.856Z" transform="translate(-983.046 -693.6)" fill="#191919"/>
          <path id="Path_22" data-name="Path 22" d="M1012.688,742.788a16.193,16.193,0,0,1,.083-18.513,9.425,9.425,0,0,1,7.413-3.975h20.273c1.29,0,2.331,1.331,2.331,2.975s-1.041,2.975-2.331,2.975h-12.678a2.131,2.131,0,0,0,0,4.182h12.678c1.29,0,2.331,1.331,2.331,2.975v.331c0,1.645-1.041,2.975-2.331,2.975h-12.678a2.131,2.131,0,0,0,0,4.182h12.678c1.29,0,2.331,1.331,2.331,2.975s-1.041,2.975-2.331,2.975h-20.273A9.364,9.364,0,0,1,1012.688,742.788Z" transform="translate(-1007.576 -718.093)" fill="#f2f2f2"/>
          <g id="Group_7" data-name="Group 7" transform="translate(2.202 2.207)">
            <path id="Path_23" data-name="Path 23" d="M1221.679,969.3h12.678a1.828,1.828,0,0,1,.95.264,2.2,2.2,0,0,0-1.835-1.141H1220.8a1.477,1.477,0,0,1-.6-.124A1.7,1.7,0,0,0,1221.679,969.3Z" transform="translate(-1202.802 -947.804)" fill="#e5e5e5"/>
            <path id="Path_24" data-name="Path 24" d="M1233.473,841.624H1220.8a1.479,1.479,0,0,1-.6-.124,1.7,1.7,0,0,0,1.471,1.008h12.678a1.83,1.83,0,0,1,.95.264A2.146,2.146,0,0,0,1233.473,841.624Z" transform="translate(-1202.802 -831.483)" fill="#e5e5e5"/>
            <path id="Path_25" data-name="Path 25" d="M1013.473,743.664a16.193,16.193,0,0,1,.083-18.513,9.424,9.424,0,0,1,7.413-3.975h20.273a1.831,1.831,0,0,1,.95.265,2.2,2.2,0,0,0-1.835-1.141h-20.273a9.449,9.449,0,0,0-7.413,3.975,16.193,16.193,0,0,0-.083,18.513,11.771,11.771,0,0,0,1.554,1.7C1013.911,744.226,1013.688,743.953,1013.473,743.664Z" transform="translate(-1009.686 -720.3)" fill="#e5e5e5"/>
          </g>
        </g>
        <path id="Path_26" data-name="Path 26" d="M999.414,742.6c-1.595,1.43-5.926,6.389-1.86,11.207,0,0-4.917,6.3,1.967,11.554l-4.7-3.421-1.719-6.562.669-6.479,2.132-3.959C995.91,744.952,1000.274,741.845,999.414,742.6Z" transform="translate(-992.269 -738.44)" fill="#191919"/>
      </g>
      <path id="Path_27" data-name="Path 27" d="M604.641,431.8c-.207.149-11.19,8.405-.554,19.819C604.087,451.61,595.277,443.445,604.641,431.8Z" transform="translate(-596.55 -428.891)" fill="#fff"/>
    </g>
    <path id="Path_29" data-name="Path 29" d="M54.914-2.258a7.057,7.057,0,0,1-.519,2.2A6.724,6.724,0,0,1,53.31,1.721a6.2,6.2,0,0,1-1.526,1.29,5.621,5.621,0,0,1-1.872.708,4.945,4.945,0,0,1,2,.582,5.329,5.329,0,0,1,1.714,1.431A5.824,5.824,0,0,1,54.678,7.9a6.139,6.139,0,0,1,.047,2.737,9,9,0,0,1-1.148,3.13,10.368,10.368,0,0,1-1.966,2.375,11.848,11.848,0,0,1-2.485,1.7,16.649,16.649,0,0,1-2.753,1.117,16.971,16.971,0,0,1-2.721.6,18.569,18.569,0,0,1-2.391.173,8.213,8.213,0,0,1-2.108-.283,6.124,6.124,0,0,1-2-.944,5.936,5.936,0,0,1-1.6-1.762,7.912,7.912,0,0,1-.975-2.721,14.588,14.588,0,0,1-.11-3.838A27.019,27.019,0,0,1,35.505,5.04L37.361-1.5a.918.918,0,0,0-.157-.849,1.375,1.375,0,0,0-.315-.283,6.779,6.779,0,0,1,.944-.661,5.746,5.746,0,0,1,1.07-.456,4.681,4.681,0,0,1,1.447-.2,2.668,2.668,0,0,1,2.045.739,1.689,1.689,0,0,1,.44,1.683l-3.272,11.8a12.9,12.9,0,0,0-.283,1.777,6,6,0,0,0,.094,1.856,3.082,3.082,0,0,0,.739,1.463,2.18,2.18,0,0,0,1.683.6,6.98,6.98,0,0,0,2.155-.362,7.719,7.719,0,0,0,2.06-1.022A6.6,6.6,0,0,0,47.6,13.015a4.149,4.149,0,0,0,.771-1.966A5.056,5.056,0,0,0,48.2,8.972a4.857,4.857,0,0,0-.881-1.683,4.431,4.431,0,0,0-1.353-1.117,3.349,3.349,0,0,0-1.589-.409q-.377-.094-.739-.157a3.016,3.016,0,0,1-.629-.173,1.108,1.108,0,0,1-.409-.267.423.423,0,0,1-.079-.409.912.912,0,0,1,.33-.472,2.291,2.291,0,0,1,.771-.377A11.562,11.562,0,0,0,47.05,1.942a4.652,4.652,0,0,0,1.541-3.13,4.429,4.429,0,0,0-.22-2.06A3.9,3.9,0,0,0,47.3-4.822a5.144,5.144,0,0,0-1.777-1.007,7.184,7.184,0,0,0-2.344-.362,11.26,11.26,0,0,0-3.791.676,13.8,13.8,0,0,0-3.539,1.872A13.234,13.234,0,0,0,32.989-.779,11.335,11.335,0,0,0,31.2,2.9a8.632,8.632,0,0,0-.315,1.982,4.122,4.122,0,0,0,.2,1.573,1.5,1.5,0,0,0,.708.865,1.3,1.3,0,0,0,1.2-.142q.189,0,.346.393a2.947,2.947,0,0,1,.173,1.007,4.525,4.525,0,0,1-.173,1.305,4.057,4.057,0,0,1-.629,1.305A3.3,3.3,0,0,1,31.494,12.2a4.316,4.316,0,0,1-1.966.393,2.8,2.8,0,0,1-1.856-.661,4.363,4.363,0,0,1-1.227-1.762,7.409,7.409,0,0,1-.488-2.517,10.276,10.276,0,0,1,.33-2.894A15.885,15.885,0,0,1,28.9-.669a21.418,21.418,0,0,1,4.483-4.546,22.723,22.723,0,0,1,5.694-3.114A17.639,17.639,0,0,1,45.32-9.493a14.313,14.313,0,0,1,4.829.692,8.175,8.175,0,0,1,2.988,1.762A5.609,5.609,0,0,1,54.615-4.7,6.462,6.462,0,0,1,54.914-2.258ZM68.567,12.275a.72.72,0,0,1,.456-.3.654.654,0,0,1,.472.079.529.529,0,0,1,.236.425,1.269,1.269,0,0,1-.283.771,8,8,0,0,1-1.431,1.7,12.256,12.256,0,0,1-1.872,1.4,9.338,9.338,0,0,1-2.139.959,7.715,7.715,0,0,1-2.265.346,6.555,6.555,0,0,1-2.768-.551,5.614,5.614,0,0,1-1.95-1.431,5.052,5.052,0,0,1-1.054-1.966,4.725,4.725,0,0,1-.11-2.123,11.24,11.24,0,0,1,1.117-3.35,8.5,8.5,0,0,1,1.84-2.375,7.417,7.417,0,0,1,2.344-1.416,7.592,7.592,0,0,1,2.658-.472,4.027,4.027,0,0,1,1.384.252,4.158,4.158,0,0,1,1.243.708,2.927,2.927,0,0,1,.834,1.117,2.572,2.572,0,0,1,.157,1.447,3.346,3.346,0,0,1-.551,1.526,5.116,5.116,0,0,1-1.1,1.18,6.241,6.241,0,0,1-1.431.834,6.851,6.851,0,0,1-1.573.456,3.667,3.667,0,0,1-.959.063,4.885,4.885,0,0,1-.865-.126,3.414,3.414,0,0,0,.063,1.982,2.9,2.9,0,0,0,.818,1.164,2.76,2.76,0,0,0,1.054.551,3.659,3.659,0,0,0,.8.142A3.739,3.739,0,0,0,65.043,15,7.5,7.5,0,0,0,66.4,14.3a8.391,8.391,0,0,0,1.227-.959A7.192,7.192,0,0,0,68.567,12.275ZM64.32,6.047a1.331,1.331,0,0,0-.535.173,2.805,2.805,0,0,0-.755.613,7.4,7.4,0,0,0-.865,1.2,9.126,9.126,0,0,0-.834,1.95,4.441,4.441,0,0,0,1.07-.362,4.533,4.533,0,0,0,1.038-.676,4.075,4.075,0,0,0,.8-.944A2.41,2.41,0,0,0,64.6,6.833a1.584,1.584,0,0,0-.031-.566A.255.255,0,0,0,64.32,6.047Zm17.239,6.229a.72.72,0,0,1,.456-.3.654.654,0,0,1,.472.079.529.529,0,0,1,.236.425,1.269,1.269,0,0,1-.283.771,8,8,0,0,1-1.431,1.7,12.257,12.257,0,0,1-1.872,1.4A9.338,9.338,0,0,1,77,17.309a7.715,7.715,0,0,1-2.265.346,6.555,6.555,0,0,1-2.768-.551,5.614,5.614,0,0,1-1.95-1.431,5.052,5.052,0,0,1-1.054-1.966,4.725,4.725,0,0,1-.11-2.123,11.239,11.239,0,0,1,1.117-3.35,8.5,8.5,0,0,1,1.84-2.375A7.417,7.417,0,0,1,74.15,4.443a7.592,7.592,0,0,1,2.658-.472,4.027,4.027,0,0,1,1.384.252,4.158,4.158,0,0,1,1.243.708,2.927,2.927,0,0,1,.834,1.117,2.572,2.572,0,0,1,.157,1.447,3.346,3.346,0,0,1-.551,1.526,5.117,5.117,0,0,1-1.1,1.18,6.241,6.241,0,0,1-1.431.834,6.851,6.851,0,0,1-1.573.456,3.667,3.667,0,0,1-.959.063,4.885,4.885,0,0,1-.865-.126,3.414,3.414,0,0,0,.063,1.982,2.9,2.9,0,0,0,.818,1.164,2.76,2.76,0,0,0,1.054.551,3.659,3.659,0,0,0,.8.142A3.739,3.739,0,0,0,78.035,15a7.5,7.5,0,0,0,1.353-.692,8.391,8.391,0,0,0,1.227-.959A7.192,7.192,0,0,0,81.558,12.275ZM77.312,6.047a1.331,1.331,0,0,0-.535.173,2.8,2.8,0,0,0-.755.613,7.4,7.4,0,0,0-.865,1.2,9.126,9.126,0,0,0-.834,1.95,4.441,4.441,0,0,0,1.07-.362,4.533,4.533,0,0,0,1.038-.676,4.074,4.074,0,0,0,.8-.944,2.409,2.409,0,0,0,.362-1.164,1.584,1.584,0,0,0-.031-.566A.255.255,0,0,0,77.312,6.047Z" transform="translate(582.016 488.209)" fill="#ffc545"/>
  </g>
</svg>
