<svg xmlns="http://www.w3.org/2000/svg" width="98.02" height="127.924" viewBox="0 0 98.02 127.924">
  <g id="BitesBee1" transform="translate(-562.422 -396.604)">
    <path id="Path_28" data-name="Path 28" d="M19.6-4.6a4.775,4.775,0,0,1-.351,1.49,4.55,4.55,0,0,1-.734,1.2,4.193,4.193,0,0,1-1.032.873,3.8,3.8,0,0,1-1.267.479,3.346,3.346,0,0,1,1.352.394,3.606,3.606,0,0,1,1.16.969,3.941,3.941,0,0,1,.713,1.469,4.154,4.154,0,0,1,.032,1.852A6.087,6.087,0,0,1,18.7,6.248a7.016,7.016,0,0,1-1.33,1.607A8.017,8.017,0,0,1,15.685,9a11.265,11.265,0,0,1-1.863.756,11.484,11.484,0,0,1-1.841.4,12.565,12.565,0,0,1-1.618.117,5.557,5.557,0,0,1-1.426-.192,4.144,4.144,0,0,1-1.352-.639A4.017,4.017,0,0,1,6.5,8.26a5.353,5.353,0,0,1-.66-1.841,9.871,9.871,0,0,1-.075-2.6,18.284,18.284,0,0,1,.7-3.48L7.723-4.086a.621.621,0,0,0-.106-.575A.93.93,0,0,0,7.4-4.853,4.587,4.587,0,0,1,8.043-5.3a3.888,3.888,0,0,1,.724-.309,3.167,3.167,0,0,1,.979-.138,1.805,1.805,0,0,1,1.384.5,1.143,1.143,0,0,1,.3,1.139L9.214,3.875a8.729,8.729,0,0,0-.192,1.2,4.062,4.062,0,0,0,.064,1.256,2.086,2.086,0,0,0,.5.99,1.475,1.475,0,0,0,1.139.4,4.723,4.723,0,0,0,1.458-.245,5.223,5.223,0,0,0,1.394-.692,4.464,4.464,0,0,0,1.075-1.054,2.808,2.808,0,0,0,.522-1.33A3.422,3.422,0,0,0,15.057,3a3.286,3.286,0,0,0-.6-1.139,3,3,0,0,0-.915-.756A2.266,2.266,0,0,0,12.47.831q-.255-.064-.5-.106a2.041,2.041,0,0,1-.426-.117.75.75,0,0,1-.277-.181A.286.286,0,0,1,11.214.15a.617.617,0,0,1,.224-.319,1.551,1.551,0,0,1,.522-.255,7.823,7.823,0,0,0,2.32-1.33,3.148,3.148,0,0,0,1.043-2.118,3,3,0,0,0-.149-1.394,2.637,2.637,0,0,0-.724-1.064,3.481,3.481,0,0,0-1.2-.681,4.861,4.861,0,0,0-1.586-.245A7.619,7.619,0,0,0,9.1-6.8,9.337,9.337,0,0,0,6.7-5.534,8.955,8.955,0,0,0,4.765-3.6a7.671,7.671,0,0,0-1.213,2.49A5.841,5.841,0,0,0,3.339.235,2.789,2.789,0,0,0,3.477,1.3a1.012,1.012,0,0,0,.479.585.881.881,0,0,0,.809-.1q.128,0,.234.266a1.994,1.994,0,0,1,.117.681A3.062,3.062,0,0,1,5,3.619a2.746,2.746,0,0,1-.426.883,2.235,2.235,0,0,1-.82.681,2.92,2.92,0,0,1-1.33.266A1.891,1.891,0,0,1,1.167,5a2.952,2.952,0,0,1-.83-1.192,5.014,5.014,0,0,1-.33-1.7A6.953,6.953,0,0,1,.231.15,10.75,10.75,0,0,1,2-3.522,14.493,14.493,0,0,1,5.031-6.6,15.376,15.376,0,0,1,8.884-8.705a11.936,11.936,0,0,1,4.225-.788,9.685,9.685,0,0,1,3.267.468A5.531,5.531,0,0,1,18.4-7.833a3.8,3.8,0,0,1,1,1.586A4.372,4.372,0,0,1,19.6-4.6Zm6.875,9.77a.487.487,0,0,1,.309-.2.48.48,0,0,1,.319.043.328.328,0,0,1,.16.277.9.9,0,0,1-.17.522,5.593,5.593,0,0,1-.9,1,9.353,9.353,0,0,1-1.447,1.075,7.623,7.623,0,0,1-1.767.788,4.083,4.083,0,0,1-1.863.138,1.511,1.511,0,0,1-.8-.351,1.6,1.6,0,0,1-.415-.6,1.871,1.871,0,0,1-.128-.681,2.526,2.526,0,0,1,.064-.607l1.533-5.364a.621.621,0,0,0-.106-.575.93.93,0,0,0-.213-.192A4.587,4.587,0,0,1,21.687,0a4.393,4.393,0,0,1,.724-.319,2.958,2.958,0,0,1,.979-.149,1.784,1.784,0,0,1,1.384.511,1.165,1.165,0,0,1,.3,1.149L23.539,6.6a.459.459,0,0,0,.043.277Q23.646,7,23.9,7a1.687,1.687,0,0,0,.724-.17,3.7,3.7,0,0,0,.7-.436,4.528,4.528,0,0,0,.628-.6Q26.243,5.471,26.477,5.173Zm-2.15-6.961a1.615,1.615,0,0,1-1.256-.543,1.6,1.6,0,0,1-.4-1.309,2.043,2.043,0,0,1,.681-1.33,1.992,1.992,0,0,1,1.384-.543,1.615,1.615,0,0,1,1.256.543,1.633,1.633,0,0,1,.4,1.33A2.026,2.026,0,0,1,25.71-2.33,1.992,1.992,0,0,1,24.327-1.787Zm9.047,6.918a.535.535,0,0,1,.309-.213.378.378,0,0,1,.309.043.4.4,0,0,1,.16.287.831.831,0,0,1-.16.522,4.4,4.4,0,0,1-.575.681,9.623,9.623,0,0,1-1.16,1.011A9.209,9.209,0,0,1,30.7,8.4a4.813,4.813,0,0,1-1.756.479,2.246,2.246,0,0,1-1.256-.266,2.423,2.423,0,0,1-.883-.83,3.193,3.193,0,0,1-.351-2.544l1.49-5.3a3.46,3.46,0,0,0-.937.213.657.657,0,0,1-.149-.426,1.188,1.188,0,0,1,.128-.607,1.411,1.411,0,0,1,.49-.543,1.59,1.59,0,0,1,.915-.234l.766-2.682a.656.656,0,0,0-.106-.6.93.93,0,0,0-.213-.192,4.587,4.587,0,0,1,.639-.447,3.811,3.811,0,0,1,.734-.309,3.271,3.271,0,0,1,.99-.138,1.776,1.776,0,0,1,1.362.5,1.143,1.143,0,0,1,.3,1.139l-.894,3.172a1.667,1.667,0,0,0,.458.075,3.175,3.175,0,0,0,.522-.021,2.487,2.487,0,0,0,.479-.106,1.5,1.5,0,0,0,.351-.16.731.731,0,0,1,.16.447,1.4,1.4,0,0,1-.1.649,1.327,1.327,0,0,1-.447.575,1.4,1.4,0,0,1-.873.245,5.4,5.4,0,0,1-.575-.032,1.352,1.352,0,0,1-.426-.1L29.9,6.131a.647.647,0,0,0,.032.394.554.554,0,0,0,.213.245.774.774,0,0,0,.319.106.969.969,0,0,0,.351-.021,5.206,5.206,0,0,0,.607-.255,6.99,6.99,0,0,0,.7-.394,6.442,6.442,0,0,0,.681-.5A3.9,3.9,0,0,0,33.373,5.131Zm8.685.106a.487.487,0,0,1,.309-.2.443.443,0,0,1,.319.053.358.358,0,0,1,.16.287.859.859,0,0,1-.192.522,5.416,5.416,0,0,1-.969,1.149,8.3,8.3,0,0,1-1.267.947,6.319,6.319,0,0,1-1.447.649,5.221,5.221,0,0,1-1.533.234A4.435,4.435,0,0,1,35.566,8.5a3.8,3.8,0,0,1-1.32-.969,3.418,3.418,0,0,1-.713-1.33,3.2,3.2,0,0,1-.075-1.437A7.605,7.605,0,0,1,34.214,2.5,5.749,5.749,0,0,1,35.46.895a5.019,5.019,0,0,1,1.586-.958,5.137,5.137,0,0,1,1.8-.319,2.725,2.725,0,0,1,.937.17,2.814,2.814,0,0,1,.841.479,1.981,1.981,0,0,1,.564.756A1.74,1.74,0,0,1,41.292,2a2.264,2.264,0,0,1-.373,1.032,3.463,3.463,0,0,1-.745.8,4.223,4.223,0,0,1-.969.564,4.636,4.636,0,0,1-1.064.309,2.482,2.482,0,0,1-.649.043,3.306,3.306,0,0,1-.585-.085A2.31,2.31,0,0,0,36.95,6a1.96,1.96,0,0,0,.553.788,1.867,1.867,0,0,0,.713.373,2.476,2.476,0,0,0,.543.1,2.53,2.53,0,0,0,.915-.181,5.073,5.073,0,0,0,.915-.468,5.677,5.677,0,0,0,.83-.649A4.866,4.866,0,0,0,42.058,5.237ZM39.185,1.022a.9.9,0,0,0-.362.117,1.9,1.9,0,0,0-.511.415,5,5,0,0,0-.585.809,6.176,6.176,0,0,0-.564,1.32,3.005,3.005,0,0,0,.724-.245,3.067,3.067,0,0,0,.7-.458,2.757,2.757,0,0,0,.543-.639,1.63,1.63,0,0,0,.245-.788,1.072,1.072,0,0,0-.021-.383A.173.173,0,0,0,39.185,1.022Zm9.2,1.6a1.107,1.107,0,0,1-.766-.266.817.817,0,0,1-.3-.628.417.417,0,0,1,.117-.309,2.285,2.285,0,0,1,.245-.213q.128-.1.245-.17t.117-.16a.669.669,0,0,0-.1-.266q-.1-.181-.564-.181A1.085,1.085,0,0,0,47.007.5a1.185,1.185,0,0,0-.373.224,1.273,1.273,0,0,0-.287.373,1.062,1.062,0,0,0-.117.5,1.227,1.227,0,0,0,.458.894q.458.426,1.022.9a6.989,6.989,0,0,1,1.022,1.075,2.208,2.208,0,0,1,.458,1.384,2.315,2.315,0,0,1-.373,1.267,3.431,3.431,0,0,1-1.011,1.011,5.393,5.393,0,0,1-1.458.671,5.955,5.955,0,0,1-1.714.245,3.436,3.436,0,0,1-1.256-.224,3.179,3.179,0,0,1-.979-.585,2.588,2.588,0,0,1-.628-.841,2.27,2.27,0,0,1-.224-.969,1.5,1.5,0,0,1,.4-1.171,1.336,1.336,0,0,1,.915-.362.874.874,0,0,1,.766.33,1.122,1.122,0,0,1,.234.649.64.64,0,0,1-.149.468.447.447,0,0,0-.149.319.687.687,0,0,0,.255.511.746.746,0,0,0,.49.234.968.968,0,0,0,.66-.266.884.884,0,0,0,.3-.692.943.943,0,0,0-.4-.649q-.4-.351-.894-.809a5.851,5.851,0,0,1-.894-1.075,2.62,2.62,0,0,1-.4-1.469,2.142,2.142,0,0,1,.319-1.1,3.463,3.463,0,0,1,.862-.969,4.615,4.615,0,0,1,1.267-.692,4.468,4.468,0,0,1,1.554-.266A5.236,5.236,0,0,1,48.1-.4a3.281,3.281,0,0,1,.99.447,1.875,1.875,0,0,1,.585.628,1.474,1.474,0,0,1,.192.713,1.037,1.037,0,0,1-.17.607,1.255,1.255,0,0,1-.415.383,1.732,1.732,0,0,1-.5.192A2.1,2.1,0,0,1,48.38,2.619Z" transform="translate(568.23 514.246)"/>
    <g id="Group_10" data-name="Group 10" transform="translate(562.422 396.604)">
      <path id="Path_2" data-name="Path 2" d="M595.869,440.332a16.461,16.461,0,0,0,8.346-15.2c-.349-10.113-7.716-16.333-10.9-16.535-3.341.2-10.63,6.31-11.08,16.423a16.455,16.455,0,0,0,8.178,15.3c1.282.731.259,10.832.259,10.832-.967,15.647-.36,51.215-.36,51.215.146,2.092,2.475,2,2.475,2s2.328.112,2.5-1.969c0,0,1-35.557.2-51.215C595.487,451.165,594.576,441.052,595.869,440.332Z" transform="translate(-580.2 -407.251)" fill="#e5e5e5"/>
      <path id="Path_3" data-name="Path 3" d="M1258.792,410.5c-.157-2.283-.765-1.878-.765-1.878-1.159,3.161-.9,20.652-.9,20.652a1.031,1.031,0,0,1-.889.8c-.09-1.766-.731-14.747-.844-19.471,0,0-.2-2.25-.608-2.092,0,0-.4-.281-.439,2.013-.034,2.171.045,17.357-.292,19.381a1.92,1.92,0,0,1-.225-.067v-.023a.476.476,0,0,1-.056.023.49.49,0,0,1-.056-.023v.034a.827.827,0,0,1-.213.056c-.113-2.306-.72-14.713-.844-19.3,0,0-.2-2.25-.607-2.092,0,0-.405-.281-.439,2.013-.045,2.25.045,18.459-.326,19.55a1.017,1.017,0,0,1-.866-.8s.236-17.492-.934-20.652c0,0-.607-.4-.765,1.878s-2.88,21.462.54,25.7,3.543,3.959,3.352,7.244c-.146,2.643-1.879,17.435-1.89,36.31.022.011.033.011.056.023.011,12.047.18,22.5.18,22.5.146,2.07,2.464,1.98,2.464,1.98s2.306.113,2.475-1.957c0,0,.27-9.629.416-21.057.18.067.36.146.54.225.079-19.7-1.777-35.309-1.923-38.032-.18-3.273-.067-3,3.352-7.244S1258.938,412.788,1258.792,410.5Z" transform="translate(-1170.693 -407.165)" fill="#e5e5e5"/>
      <g id="Group_1" data-name="Group 1" transform="translate(24.327 0)">
        <path id="Path_4" data-name="Path 4" d="M842.505,485.832a.613.613,0,0,1-.528-.3l-8.3-14.949a.6.6,0,0,1-.056-.461.605.605,0,0,1,.281-.36l1.755-.979a.545.545,0,0,1,.292-.079.614.614,0,0,1,.529.3l8.3,14.961a.6.6,0,0,1,.056.461.606.606,0,0,1-.281.36l-1.755.979A.692.692,0,0,1,842.505,485.832Z" transform="translate(-827.631 -460.59)" fill="#191919"/>
        <rect id="Rectangle_2" data-name="Rectangle 2" width="2.002" height="17.098" transform="translate(6.561 9.693) rotate(-29.059)" fill="#191919"/>
        <ellipse id="Ellipse_1" data-name="Ellipse 1" cx="3.622" cy="5.084" rx="3.622" ry="5.084" transform="translate(0 3.518) rotate(-29.059)" fill="#191919"/>
        <path id="Path_5" data-name="Path 5" d="M807.383,427.883c-.866-1.564-.742-3.318.248-4.083a1.66,1.66,0,0,0-.248.112c-1.192.664-1.406,2.553-.472,4.229s2.655,2.5,3.847,1.834c.079-.045.158-.1.225-.146C809.8,430.268,808.249,429.447,807.383,427.883Z" transform="translate(-803.431 -420.741)" fill="#686868"/>
      </g>
      <g id="Group_2" data-name="Group 2" transform="translate(55.107 0.009)">
        <path id="Path_6" data-name="Path 6" d="M1056.548,485.832a.613.613,0,0,0,.529-.3l8.3-14.949a.6.6,0,0,0,.056-.461.6.6,0,0,0-.281-.36l-1.755-.979a.546.546,0,0,0-.292-.079.613.613,0,0,0-.529.3l-8.3,14.949a.6.6,0,0,0-.056.461.6.6,0,0,0,.281.36l1.755.979A.547.547,0,0,0,1056.548,485.832Z" transform="translate(-1054.196 -460.599)" fill="#191919"/>
        <rect id="Rectangle_3" data-name="Rectangle 3" width="2.002" height="17.098" transform="translate(2.353 24.627) rotate(-150.941)" fill="#191919"/>
        <ellipse id="Ellipse_2" data-name="Ellipse 2" cx="5.084" cy="3.622" rx="5.084" ry="3.622" transform="translate(5.949 8.889) rotate(-60.941)" fill="#191919"/>
        <path id="Path_7" data-name="Path 7" d="M1132.689,423.846c.956-1.507,2.553-2.239,3.7-1.732-.068-.056-.135-.112-.214-.169-1.147-.731-2.913-.011-3.948,1.609s-.922,3.521.225,4.252a2.425,2.425,0,0,0,.236.124C1131.755,427.108,1131.733,425.353,1132.689,423.846Z" transform="translate(-1122.824 -418.85)" fill="#686868"/>
      </g>
      <path id="Path_8" data-name="Path 8" d="M822.326,500.933A24.679,24.679,0,0,0,780.2,518.38v30.911a24.679,24.679,0,0,0,49.359,0v-30.9A24.522,24.522,0,0,0,822.326,500.933Z" transform="translate(-755.914 -482.778)" fill="#191919"/>
      <path id="Path_9" data-name="Path 9" d="M828.576,594.752h0A21.68,21.68,0,0,1,806.9,573.076v-30.9A21.68,21.68,0,0,1,828.576,520.5h0a21.68,21.68,0,0,1,21.676,21.676v30.911A21.67,21.67,0,0,1,828.576,594.752Z" transform="translate(-779.611 -506.563)" fill="#ffc545"/>
      <path id="Path_10" data-name="Path 10" d="M809.995,573.02v-30.9a21.676,21.676,0,0,1,19.7-21.586c-.4-.023-.8-.034-1.215-.034h0A21.68,21.68,0,0,0,806.8,542.176v30.911a21.68,21.68,0,0,0,21.676,21.676h0c.664,0,1.327-.034,1.98-.09A21.687,21.687,0,0,1,809.995,573.02Z" transform="translate(-779.522 -506.564)" fill="#ffba31"/>
      <path id="Path_11" data-name="Path 11" d="M862.275,1095.5H825.83a1.531,1.531,0,0,1-1.53-1.53v-1.339a.427.427,0,0,1,.427-.427h38.65a.427.427,0,0,1,.427.427v1.339A1.531,1.531,0,0,1,862.275,1095.5Z" transform="translate(-795.053 -1013.955)" fill="#191919"/>
      <rect id="Rectangle_4" data-name="Rectangle 4" width="44.106" height="3.026" transform="translate(27.12 70.303)" fill="#191919"/>
      <rect id="Rectangle_5" data-name="Rectangle 5" width="44.106" height="4.814" transform="translate(27.12 51.001)" fill="#293b54"/>
      <path id="Path_12" data-name="Path 12" d="M972.317,1183.92a1.6,1.6,0,0,0-1.339-.72h-4.623a1.6,1.6,0,0,0-1.473,2.227l2.306,5.422a1.6,1.6,0,0,0,2.947,0l2.306-5.422A1.566,1.566,0,0,0,972.317,1183.92Z" transform="translate(-919.707 -1094.719)" fill="#191919"/>
      <g id="Group_3" data-name="Group 3" transform="translate(42.239 46.355)">
        <path id="Path_13" data-name="Path 13" d="M985.712,952.409V950.8a12.427,12.427,0,0,1-.112,1.609Z" transform="translate(-980.448 -934.815)" fill="#191919"/>
        <path id="Path_14" data-name="Path 14" d="M939.8,816.675c2.958.4,5.264,3.836,5.264,8.009V808.7h0C945.053,812.851,942.747,816.259,939.8,816.675Z" transform="translate(-939.8 -808.7)" fill="#191919"/>
      </g>
      <g id="Group_6" data-name="Group 6" transform="translate(0 33.408)">
        <g id="Group_5" data-name="Group 5">
          <path id="Path_15" data-name="Path 15" d="M614.862,710.417a25.842,25.842,0,0,0-4.23-10.1l-.1-.135c-3.273-4.241-7.694-6.58-12.463-6.58H570.475a5.89,5.89,0,0,0-4.612,2.34,7.886,7.886,0,0,0,0,9.427,6.06,6.06,0,0,0,3.33,2.193,6,6,0,0,0-3.33,2.193,7.66,7.66,0,0,0-1.563,4.713v.45a7.683,7.683,0,0,0,1.563,4.713,6.06,6.06,0,0,0,3.33,2.193,6,6,0,0,0-3.33,2.193,7.886,7.886,0,0,0,0,9.426,5.873,5.873,0,0,0,4.612,2.34h27.593a14.413,14.413,0,0,0,7.1-1.879,17.632,17.632,0,0,0,5.5-4.882.343.343,0,0,0,.056-.079,26.341,26.341,0,0,0,4.027-9.708A23.987,23.987,0,0,0,614.862,710.417Z" transform="translate(-564.3 -693.6)" fill="#191919"/>
          <path id="Path_16" data-name="Path 16" d="M631.956,750.908c1.114-1.6,8.369-12.835-.112-25.2a12.828,12.828,0,0,0-10.09-5.411H594.172c-1.755,0-3.172,1.811-3.172,4.049s1.417,4.049,3.172,4.049h17.255a2.9,2.9,0,0,1,0,5.692H594.172c-1.755,0-3.172,1.811-3.172,4.05v.45c0,2.239,1.417,4.05,3.172,4.05h17.255a2.9,2.9,0,0,1,0,5.692H594.172c-1.755,0-3.172,1.811-3.172,4.049s1.417,4.049,3.172,4.049h27.593C625.769,756.464,629.38,754.327,631.956,750.908Z" transform="translate(-587.996 -717.297)" fill="#f2f2f2"/>
          <g id="Group_4" data-name="Group 4" transform="translate(3.003 3.003)">
            <path id="Path_17" data-name="Path 17" d="M593.08,728.163a4.787,4.787,0,0,1-.81-2.7c0-2.238,1.417-4.05,3.172-4.05h27.593a11.888,11.888,0,0,1,7.278,2.576,12.225,12.225,0,0,0-8.56-3.69H594.171c-1.755,0-3.172,1.811-3.172,4.049A4.119,4.119,0,0,0,593.08,728.163Z" transform="translate(-590.999 -720.3)" fill="#e5e5e5"/>
            <path id="Path_18" data-name="Path 18" d="M592.282,939.64c0-2.238,1.417-4.049,3.172-4.049H612.71a2.627,2.627,0,0,0,2.34-2.846A2.822,2.822,0,0,0,613.34,930a3.226,3.226,0,0,1,.416,1.631,2.627,2.627,0,0,1-2.34,2.846H594.172c-1.755,0-3.172,1.811-3.172,4.05a4.114,4.114,0,0,0,2.092,3.813A4.7,4.7,0,0,1,592.282,939.64Z" transform="translate(-591 -906.412)" fill="#e5e5e5"/>
            <path id="Path_19" data-name="Path 19" d="M593.08,815.99a4.787,4.787,0,0,1-.81-2.7v-.45c0-2.238,1.417-4.049,3.172-4.049h17.267a2.627,2.627,0,0,0,2.34-2.846,2.822,2.822,0,0,0-1.71-2.745,3.225,3.225,0,0,1,.416,1.631,2.627,2.627,0,0,1-2.34,2.846H594.171c-1.755,0-3.172,1.811-3.172,4.05v.45A4.107,4.107,0,0,0,593.08,815.99Z" transform="translate(-590.999 -793.875)" fill="#e5e5e5"/>
          </g>
        </g>
        <path id="Path_20" data-name="Path 20" d="M928.974,742.639c2.171,1.946,8.065,8.7,2.531,15.253,0,0,6.693,8.572-2.677,15.725l6.4-4.657,2.34-8.932-.911-8.819-2.9-5.388C933.732,745.845,927.793,741.615,928.974,742.639Z" transform="translate(-887.815 -736.981)" fill="#191919"/>
      </g>
      <g id="Group_9" data-name="Group 9" transform="translate(47.103 33.408)">
        <g id="Group_8" data-name="Group 8">
          <path id="Path_21" data-name="Path 21" d="M1029.07,707.56a6,6,0,0,0,3.33-2.193,7.886,7.886,0,0,0,0-9.427,5.873,5.873,0,0,0-4.612-2.34h-27.593c-4.769,0-9.19,2.34-12.463,6.58l-.1.135a25.51,25.51,0,0,0-4.229,10.1,23.922,23.922,0,0,0,.113,8.808,26.75,26.75,0,0,0,4.027,9.708.4.4,0,0,1,.056.09,17.791,17.791,0,0,0,5.5,4.882,14.413,14.413,0,0,0,7.1,1.879h27.593a5.89,5.89,0,0,0,4.612-2.34,7.886,7.886,0,0,0,0-9.426,6.061,6.061,0,0,0-3.33-2.193,6,6,0,0,0,3.33-2.193,7.66,7.66,0,0,0,1.563-4.713v-.45a7.684,7.684,0,0,0-1.563-4.713A5.943,5.943,0,0,0,1029.07,707.56Z" transform="translate(-983.046 -693.6)" fill="#191919"/>
          <path id="Path_22" data-name="Path 22" d="M1013.736,750.908c-1.114-1.6-8.369-12.835.113-25.2a12.828,12.828,0,0,1,10.09-5.411h27.593c1.755,0,3.172,1.811,3.172,4.049s-1.417,4.049-3.172,4.049h-17.255a2.9,2.9,0,0,0,0,5.692h17.255c1.755,0,3.172,1.811,3.172,4.05v.45c0,2.239-1.417,4.05-3.172,4.05h-17.255a2.9,2.9,0,0,0,0,5.692h17.255c1.755,0,3.172,1.811,3.172,4.049s-1.417,4.049-3.172,4.049h-27.593C1019.923,756.464,1016.312,754.327,1013.736,750.908Z" transform="translate(-1006.778 -717.297)" fill="#f2f2f2"/>
          <g id="Group_7" data-name="Group 7" transform="translate(2.997 3.003)">
            <path id="Path_23" data-name="Path 23" d="M1222.213,969.661h17.256a2.489,2.489,0,0,1,1.293.36,2.992,2.992,0,0,0-2.5-1.552H1221.01a2.009,2.009,0,0,1-.81-.169A2.319,2.319,0,0,0,1222.213,969.661Z" transform="translate(-1196.52 -940.403)" fill="#e5e5e5"/>
            <path id="Path_24" data-name="Path 24" d="M1238.265,841.669H1221.01a2.011,2.011,0,0,1-.81-.169,2.308,2.308,0,0,0,2,1.372h17.255a2.492,2.492,0,0,1,1.294.36A2.921,2.921,0,0,0,1238.265,841.669Z" transform="translate(-1196.52 -827.867)" fill="#e5e5e5"/>
            <path id="Path_25" data-name="Path 25" d="M1014.84,752.1c-1.113-1.6-8.369-12.834.113-25.2a12.827,12.827,0,0,1,10.09-5.411h27.593a2.492,2.492,0,0,1,1.293.36,2.993,2.993,0,0,0-2.5-1.552h-27.593a12.861,12.861,0,0,0-10.09,5.411c-8.481,12.362-1.226,23.6-.112,25.2a16.031,16.031,0,0,0,2.115,2.317C1015.436,752.865,1015.132,752.493,1014.84,752.1Z" transform="translate(-1009.687 -720.3)" fill="#e5e5e5"/>
          </g>
        </g>
        <path id="Path_26" data-name="Path 26" d="M1001.694,742.639c-2.171,1.946-8.065,8.7-2.531,15.253,0,0-6.693,8.572,2.677,15.725l-6.4-4.657-2.339-8.932.911-8.819,2.9-5.388C996.925,745.845,1002.864,741.615,1001.694,742.639Z" transform="translate(-991.969 -736.981)" fill="#191919"/>
      </g>
      <path id="Path_27" data-name="Path 27" d="M606.513,431.8c-.281.2-15.231,11.44-.754,26.974C605.76,458.763,593.769,447.649,606.513,431.8Z" transform="translate(-595.501 -427.841)" fill="#fff"/>
    </g>
    <path id="Path_29" data-name="Path 29" d="M45.55-4.6a4.776,4.776,0,0,1-.351,1.49,4.55,4.55,0,0,1-.734,1.2,4.193,4.193,0,0,1-1.032.873,3.8,3.8,0,0,1-1.267.479,3.346,3.346,0,0,1,1.352.394,3.606,3.606,0,0,1,1.16.969,3.941,3.941,0,0,1,.713,1.469,4.154,4.154,0,0,1,.032,1.852,6.087,6.087,0,0,1-.777,2.118,7.016,7.016,0,0,1-1.33,1.607A8.017,8.017,0,0,1,41.634,9a11.265,11.265,0,0,1-1.863.756,11.484,11.484,0,0,1-1.841.4,12.565,12.565,0,0,1-1.618.117,5.557,5.557,0,0,1-1.426-.192,4.144,4.144,0,0,1-1.352-.639A4.017,4.017,0,0,1,32.449,8.26a5.353,5.353,0,0,1-.66-1.841,9.871,9.871,0,0,1-.075-2.6,18.283,18.283,0,0,1,.7-3.48l1.256-4.428a.621.621,0,0,0-.106-.575.93.93,0,0,0-.213-.192,4.587,4.587,0,0,1,.639-.447,3.888,3.888,0,0,1,.724-.309,3.167,3.167,0,0,1,.979-.138,1.805,1.805,0,0,1,1.384.5,1.143,1.143,0,0,1,.3,1.139L35.163,3.875a8.73,8.73,0,0,0-.192,1.2,4.062,4.062,0,0,0,.064,1.256,2.086,2.086,0,0,0,.5.99,1.475,1.475,0,0,0,1.139.4,4.723,4.723,0,0,0,1.458-.245,5.223,5.223,0,0,0,1.394-.692A4.464,4.464,0,0,0,40.6,5.737a2.807,2.807,0,0,0,.522-1.33A3.422,3.422,0,0,0,41.006,3a3.286,3.286,0,0,0-.6-1.139,3,3,0,0,0-.915-.756A2.266,2.266,0,0,0,38.419.831q-.255-.064-.5-.106a2.041,2.041,0,0,1-.426-.117.75.75,0,0,1-.277-.181A.286.286,0,0,1,37.163.15a.617.617,0,0,1,.224-.319,1.551,1.551,0,0,1,.522-.255,7.823,7.823,0,0,0,2.32-1.33,3.148,3.148,0,0,0,1.043-2.118,3,3,0,0,0-.149-1.394A2.637,2.637,0,0,0,40.4-6.332a3.481,3.481,0,0,0-1.2-.681,4.861,4.861,0,0,0-1.586-.245,7.619,7.619,0,0,0-2.565.458,9.337,9.337,0,0,0-2.395,1.267A8.955,8.955,0,0,0,30.714-3.6,7.671,7.671,0,0,0,29.5-1.106,5.841,5.841,0,0,0,29.288.235,2.789,2.789,0,0,0,29.426,1.3a1.012,1.012,0,0,0,.479.585.881.881,0,0,0,.809-.1q.128,0,.234.266a1.994,1.994,0,0,1,.117.681,3.062,3.062,0,0,1-.117.883,2.745,2.745,0,0,1-.426.883,2.235,2.235,0,0,1-.82.681,2.92,2.92,0,0,1-1.33.266A1.891,1.891,0,0,1,27.116,5a2.952,2.952,0,0,1-.83-1.192,5.014,5.014,0,0,1-.33-1.7A6.953,6.953,0,0,1,26.18.15a10.749,10.749,0,0,1,1.767-3.672A14.493,14.493,0,0,1,30.98-6.6a15.376,15.376,0,0,1,3.853-2.107,11.936,11.936,0,0,1,4.225-.788,9.685,9.685,0,0,1,3.267.468,5.531,5.531,0,0,1,2.022,1.192,3.8,3.8,0,0,1,1,1.586A4.372,4.372,0,0,1,45.55-4.6Zm9.238,9.834a.487.487,0,0,1,.309-.2.443.443,0,0,1,.319.053.358.358,0,0,1,.16.287.859.859,0,0,1-.192.522,5.415,5.415,0,0,1-.969,1.149,8.294,8.294,0,0,1-1.267.947,6.319,6.319,0,0,1-1.447.649,5.221,5.221,0,0,1-1.533.234A4.435,4.435,0,0,1,48.3,8.5a3.8,3.8,0,0,1-1.32-.969,3.419,3.419,0,0,1-.713-1.33,3.2,3.2,0,0,1-.075-1.437A7.605,7.605,0,0,1,46.944,2.5,5.749,5.749,0,0,1,48.19.895a5.019,5.019,0,0,1,1.586-.958,5.137,5.137,0,0,1,1.8-.319,2.725,2.725,0,0,1,.937.17,2.814,2.814,0,0,1,.841.479,1.98,1.98,0,0,1,.564.756A1.741,1.741,0,0,1,54.022,2a2.264,2.264,0,0,1-.373,1.032,3.462,3.462,0,0,1-.745.8,4.223,4.223,0,0,1-.969.564,4.636,4.636,0,0,1-1.064.309,2.482,2.482,0,0,1-.649.043,3.306,3.306,0,0,1-.585-.085A2.31,2.31,0,0,0,49.68,6a1.96,1.96,0,0,0,.553.788,1.868,1.868,0,0,0,.713.373,2.476,2.476,0,0,0,.543.1,2.53,2.53,0,0,0,.915-.181,5.073,5.073,0,0,0,.915-.468,5.677,5.677,0,0,0,.83-.649A4.867,4.867,0,0,0,54.788,5.237ZM51.915,1.022a.9.9,0,0,0-.362.117,1.9,1.9,0,0,0-.511.415,5.006,5.006,0,0,0-.585.809,6.176,6.176,0,0,0-.564,1.32,3.005,3.005,0,0,0,.724-.245,3.068,3.068,0,0,0,.7-.458,2.757,2.757,0,0,0,.543-.639,1.63,1.63,0,0,0,.245-.788,1.072,1.072,0,0,0-.021-.383A.173.173,0,0,0,51.915,1.022ZM63.58,5.237a.487.487,0,0,1,.309-.2.443.443,0,0,1,.319.053.358.358,0,0,1,.16.287.859.859,0,0,1-.192.522,5.415,5.415,0,0,1-.969,1.149,8.294,8.294,0,0,1-1.267.947,6.319,6.319,0,0,1-1.447.649,5.221,5.221,0,0,1-1.533.234A4.435,4.435,0,0,1,57.087,8.5a3.8,3.8,0,0,1-1.32-.969,3.418,3.418,0,0,1-.713-1.33,3.2,3.2,0,0,1-.075-1.437A7.605,7.605,0,0,1,55.736,2.5,5.749,5.749,0,0,1,56.981.895a5.019,5.019,0,0,1,1.586-.958,5.137,5.137,0,0,1,1.8-.319,2.725,2.725,0,0,1,.937.17,2.814,2.814,0,0,1,.841.479,1.98,1.98,0,0,1,.564.756A1.74,1.74,0,0,1,62.813,2a2.264,2.264,0,0,1-.373,1.032,3.463,3.463,0,0,1-.745.8,4.223,4.223,0,0,1-.969.564,4.636,4.636,0,0,1-1.064.309,2.482,2.482,0,0,1-.649.043,3.306,3.306,0,0,1-.585-.085A2.31,2.31,0,0,0,58.471,6a1.96,1.96,0,0,0,.553.788,1.868,1.868,0,0,0,.713.373,2.476,2.476,0,0,0,.543.1,2.53,2.53,0,0,0,.915-.181,5.073,5.073,0,0,0,.915-.468,5.677,5.677,0,0,0,.83-.649A4.867,4.867,0,0,0,63.58,5.237ZM60.706,1.022a.9.9,0,0,0-.362.117,1.9,1.9,0,0,0-.511.415,5.005,5.005,0,0,0-.585.809,6.175,6.175,0,0,0-.564,1.32,3.005,3.005,0,0,0,.724-.245,3.067,3.067,0,0,0,.7-.458,2.757,2.757,0,0,0,.543-.639,1.63,1.63,0,0,0,.245-.788,1.072,1.072,0,0,0-.021-.383A.173.173,0,0,0,60.706,1.022Z" transform="translate(592.496 514.246)" fill="#fff"/>
  </g>
</svg>
