<svg xmlns="http://www.w3.org/2000/svg" width="345" height="337.073" viewBox="0 0 345 337.073">
  <g id="Group_222" data-name="Group 222" transform="translate(-1186.576 -830.285)" opacity="0.05">
    <path id="Path_285" data-name="Path 285" d="M1245.211,1122.263c-.534,37.906-1.411,68.909-1.411,68.909-.61,7.321-8.809,6.9-8.809,6.9s-8.2.343-8.694-7.017c0,0-.534-30.927-.609-68.795Z" transform="translate(-4.115 -30.721)" fill="#fff"/>
    <path id="Path_286" data-name="Path 286" d="M1233.59,830.325c-11.745.687-37.409,22.194-39.011,57.773s24.292,51.291,28.791,53.845a2.562,2.562,0,0,1,.915,1.182h17.389a2.42,2.42,0,0,1,.915-1.143c4.5-2.516,30.583-17.923,29.362-53.464-1.22-35.617-27.151-57.505-38.363-58.192M1218.6,928.75c-42.4-51.711,6.636-88.586,7.589-89.234-34.778,43.244-17.2,76.5-7.589,89.234" transform="translate(-0.834 -0.004)" fill="#fff"/>
    <path id="Path_287" data-name="Path 287" d="M1521.011,1122.349c-.534,37.866-1.41,68.794-1.41,68.794-.573,7.283-8.7,6.864-8.7,6.864s-8.16.344-8.656-6.94c0,0-.5-30.927-.609-68.718Z" transform="translate(-33.15 -30.73)" fill="#fff"/>
    <path id="Path_288" data-name="Path 288" d="M1526.646,927.756c-6.9,8.619-9.991,11.937-11.249,15.406h-9.229c-1.258-3.47-4.347-6.788-11.249-15.368-12.05-14.948-2.478-82.446-1.907-90.492.572-8.008,2.708-6.6,2.708-6.6,4.119,11.135,3.28,72.684,3.28,72.684a3.569,3.569,0,0,0,3.05,2.821c1.3-3.852.992-60.9,1.144-68.794.115-8.084,1.526-7.094,1.526-7.094,1.448-.571,2.136,7.36,2.136,7.36.458,16.13,2.592,59.794,2.974,67.917a2.772,2.772,0,0,0,.763-.19V905.3a1.739,1.739,0,0,0,.19.076,1.7,1.7,0,0,0,.19-.076v.076c.229.076.5.153.8.229,1.181-7.13.914-60.556,1.029-68.183.114-8.084,1.563-7.094,1.563-7.094,1.411-.571,2.136,7.36,2.136,7.36.381,16.627,2.631,62.312,2.936,68.527a3.7,3.7,0,0,0,3.165-2.821s-.914-61.55,3.167-72.684c0,0,2.135-1.411,2.669,6.6.534,8.046,10.219,75.505-1.793,90.454" transform="translate(-31.806)" fill="#fff"/>
    <path id="Path_289" data-name="Path 289" d="M1316.3,863.134l9.3,16.779a15.608,15.608,0,0,1,1.831-1.106l-9.915-17.847-1.639-2.974a2.113,2.113,0,0,0-1.868-1.068,1.975,1.975,0,0,0-1.03.268L1307,860.5a7.2,7.2,0,0,0,4.308-.152c-.229.152-.5.343-.8.533a6.97,6.97,0,0,1-4.576.686,2.485,2.485,0,0,0-.115.306,2.189,2.189,0,0,0,.191,1.639l1.945,3.47,10.106,18.229c.572-.5,1.1-.916,1.677-1.335l-9.457-17.008a8.641,8.641,0,0,0,2.974-1.03,9.483,9.483,0,0,0,3.05-2.707" transform="translate(-12.537 -2.802)" fill="#fff"/>
    <path id="Path_290" data-name="Path 290" d="M1313.929,841.264c-4.8-8.619-13.691-12.851-19.829-9.458-6.179,3.394-7.246,13.195-2.479,21.813,3.546,6.368,9.3,10.335,14.529,10.6a7.819,7.819,0,0,0,2.326-.114,8.624,8.624,0,0,0,2.974-1.03,9.453,9.453,0,0,0,3.05-2.707,8.643,8.643,0,0,0,1.22-2.174c1.983-4.538,1.488-10.982-1.792-16.931m-18.762,10.372c-3.279-5.872-2.517-12.546,1.678-14.872a6.115,6.115,0,0,1,.877-.382c-3.507,2.67-3.927,8.848-.877,14.339,2.06,3.737,5.225,6.292,8.352,7.016a7.18,7.18,0,0,0,4.308-.152c-.228.152-.495.344-.8.534a6.972,6.972,0,0,1-4.576.686c-3.279-.61-6.712-3.2-8.962-7.169" transform="translate(-10.74 -0.037)" fill="#fff"/>
    <path id="Path_291" data-name="Path 291" d="M1445.114,861.876a2.049,2.049,0,0,0-.99-1.259l-5.721-3.2h-.076a6.862,6.862,0,0,0,1.945,2.936,8.225,8.225,0,0,1-.8-.42,6.647,6.647,0,0,1-2.478-3.013h-.077a2.1,2.1,0,0,0-1.83,1.068L1433.408,861l-8.81,15.863,1.831,1.03,8.2-14.758a9.481,9.481,0,0,0,3.05,2.708,8.957,8.957,0,0,0,2.937.991l-8.16,14.758c.61.42,1.182.8,1.755,1.258l8.77-15.864,1.945-3.47a2.027,2.027,0,0,0,.19-1.639" transform="translate(-25.044 -2.802)" fill="#fff"/>
    <path id="Path_292" data-name="Path 292" d="M1455.966,831.806c-6.177-3.393-15.063.839-19.83,9.458-3.318,5.95-3.814,12.432-1.83,16.97a10.755,10.755,0,0,0,1.22,2.136,9.482,9.482,0,0,0,3.051,2.707,8.9,8.9,0,0,0,2.936.992,7,7,0,0,0,2.364.152c5.263-.266,11.022-4.232,14.53-10.6,4.8-8.619,3.736-18.419-2.441-21.813m-14.8,11.4c-2.479,3.89-3.089,8.275-1.945,11.441a6.861,6.861,0,0,0,1.945,2.936,8.232,8.232,0,0,1-.8-.419,6.648,6.648,0,0,1-2.478-3.014c-1.45-3.2-.953-7.855,1.678-11.973,3.623-5.683,9.838-8.237,13.881-5.644a6.6,6.6,0,0,1,.762.573c-4.042-1.755-9.647.8-13.041,6.1" transform="translate(-25.942 -0.037)" fill="#fff"/>
    <path id="Path_293" data-name="Path 293" d="M1514.339,996.239a21.013,21.013,0,0,0,11.707-7.7,27.646,27.646,0,0,0,0-33.177,20.578,20.578,0,0,0-16.207-8.237h-64.41a86.279,86.279,0,0,0-25.091-53.693,84.484,84.484,0,0,0-11.173-9.419c-.573-.458-1.143-.839-1.755-1.259-1.945-1.3-3.966-2.555-6.025-3.7l-1.831-1.031a86.849,86.849,0,0,0-84.658,1.945,15.786,15.786,0,0,0-1.83,1.106c-2.02,1.22-3.966,2.555-5.872,3.966-.573.42-1.106.839-1.678,1.335a81.623,81.623,0,0,0-8.008,7.055,86,86,0,0,0-25.092,53.655h-64.1a20.69,20.69,0,0,0-16.207,8.237,27.645,27.645,0,0,0,0,33.176,21.065,21.065,0,0,0,11.707,7.7,21.073,21.073,0,0,0-11.707,7.7,26.892,26.892,0,0,0-5.53,16.588v1.6a26.968,26.968,0,0,0,5.53,16.588,21.473,21.473,0,0,0,11.707,7.7,21.268,21.268,0,0,0-11.707,7.7,27.647,27.647,0,0,0,0,33.177,20.637,20.637,0,0,0,16.207,8.236h97.127a50.88,50.88,0,0,0,24.978-6.6c.725-.419,1.449-.839,2.174-1.3h52.892c.724.495,1.487.953,2.25,1.373a50.888,50.888,0,0,0,24.977,6.6h97.128a20.6,20.6,0,0,0,16.207-8.2,27.647,27.647,0,0,0,0-33.177,21.085,21.085,0,0,0-11.707-7.742,20.815,20.815,0,0,0,11.707-7.7,26.89,26.89,0,0,0,5.53-16.588v-1.6a26.73,26.73,0,0,0-5.53-16.588,20.5,20.5,0,0,0-11.707-7.742m-203.6-100.521c.534-.458,1.106-.915,1.679-1.336,1.868-1.449,3.813-2.783,5.8-4.042.61-.42,1.221-.763,1.83-1.105a76.134,76.134,0,0,1,74.362-1.907c.609.305,1.22.648,1.831.991a68.549,68.549,0,0,1,5.986,3.736,18.668,18.668,0,0,1,1.755,1.258,76.146,76.146,0,0,1,30.85,53.808h-22.118c-16.778,0-32.337,8.237-43.854,23.186l-.343.457a99.367,99.367,0,0,0-9.457,17.084,98.094,98.094,0,0,0-9.381-17.122,4.03,4.03,0,0,1-.382-.458c-11.516-14.948-27.075-23.186-43.854-23.186h-22.422a76.209,76.209,0,0,1,27.723-51.366m18.763,181.251a40.634,40.634,0,0,1-24.063,7.855h-97.127c-6.178,0-11.136-6.368-11.136-14.262,0-7.855,4.958-14.224,11.136-14.224h60.748a6.872,6.872,0,0,0,3.012-.724c3.051-1.45,5.224-5.072,5.224-9.306s-2.173-7.855-5.224-9.3a6.863,6.863,0,0,0-3.012-.725h-60.748c-6.178,0-11.136-6.368-11.136-14.223v-1.6c0-7.894,4.958-14.262,11.136-14.262h60.748a6.383,6.383,0,0,0,3.012-.725c3.051-1.411,5.224-5.034,5.224-9.267,0-4.271-2.173-7.894-5.224-9.342a6.826,6.826,0,0,0-3.012-.686h-60.748c-6.178,0-11.136-6.369-11.136-14.262,0-7.855,4.958-14.223,11.136-14.223H1305.4a42.066,42.066,0,0,1,26.465,9.724l.038.039c6.559,6.024,21.127,23.033,15.14,41.565a32.528,32.528,0,0,1-4.385,8.657c-.687.991-1.449,2.02-2.289,3.012a30.187,30.187,0,0,1,1.869,2.822c.42.725.878,1.526,1.372,2.441,3.432,6.6,7.666,18.534,2.4,31.422.039.038,0,.076-.038.115a71.017,71.017,0,0,1-4.69,7.894,53.025,53.025,0,0,1-11.783,11.593m15.9,0a67.15,67.15,0,0,0,4.386-5.263,1.164,1.164,0,0,0,.189-.267,86.741,86.741,0,0,0,9.077-17.2,89.942,89.942,0,0,0,9.114,17.235c.076.115.19.191.228.344,1.374,1.792,2.785,3.508,4.271,5.149Zm175.646-54.913c0,7.855-5,14.223-11.173,14.223H1449.13a6.889,6.889,0,0,0-3.356.877,11.021,11.021,0,0,0,0,18.3,6.876,6.876,0,0,0,3.356.877h60.748c6.177,0,11.173,6.369,11.173,14.224,0,7.894-5,14.262-11.173,14.262H1412.75a40.746,40.746,0,0,1-24.1-7.855,53,53,0,0,1-11.783-11.593,69.529,69.529,0,0,1-5.339-9.152c0-.038,0-.076-.038-.076-4.424-12.432-.343-23.834,2.975-30.2a36.392,36.392,0,0,1,3.241-5.263,33.632,33.632,0,0,1-6.673-11.669c-5.8-17.809,7.436-34.207,14.3-40.8.077-.077.115-.153.191-.192,7.818-6.52,17.161-10.333,27.228-10.333h97.128c6.177,0,11.173,6.368,11.173,14.223,0,7.893-5,14.262-11.173,14.262H1449.13a6.881,6.881,0,0,0-3.356.877,10.985,10.985,0,0,0,0,18.266,6.881,6.881,0,0,0,3.356.878h60.748c6.177,0,11.173,6.368,11.173,14.262Z" transform="translate(0 -3.964)" fill="#fff"/>
    <path id="Path_294" data-name="Path 294" d="M1438.955,1122.335a66.706,66.706,0,0,1-5.11,9.3H1305.562a70.03,70.03,0,0,1-5.186-9.381H1288.86a86.895,86.895,0,0,0,67.764,53.922c.572.115,1.182.191,1.754.267a83.671,83.671,0,0,0,22.538,0h.038l1.716-.229a85.464,85.464,0,0,0,48.43-24.445,86.4,86.4,0,0,0,19.333-29.439Zm-57.048,43.321a76.188,76.188,0,0,1-67.155-22.386h109.9a76.089,76.089,0,0,1-42.747,22.386" transform="translate(-10.762 -30.72)" fill="#fff"/>
    <path id="Path_295" data-name="Path 295" d="M1390.625,1182.564l-1.716,4.043h-.039l-6.1,14.375a5.648,5.648,0,0,1-10.373-.037l-6.063-14.338-1.754-4.081c.572.115,1.182.19,1.754.267a83.662,83.662,0,0,0,22.537,0h.039l1.716-.228" transform="translate(-18.729 -37.062)" fill="#fff"/>
  </g>
</svg>
