<svg xmlns="http://www.w3.org/2000/svg" width="63" height="49.081" viewBox="0 0 63 49.081">
  <g id="Group_291" data-name="Group 291" transform="translate(-142 -122.419)">
    <ellipse id="Ellipse_40" data-name="Ellipse 40" cx="19.5" cy="1.5" rx="19.5" ry="1.5" transform="translate(154 156.5)" fill="#55b56a"/>
    <g id="Filled_outline" data-name="Filled outline" transform="translate(142.126 120.425)" opacity="0.7">
      <path id="Path_224" data-name="Path 224" d="M34.869,22.509a9.422,9.422,0,0,0,1.159-2.822c.77-3.376-.248-7.886-2.9-9.032-2.206-.954-4.812.741-5.216,0-.321-.589,1.444-1.454,1.739-3.385a3.908,3.908,0,0,0-1.739-3.951C26.15,2.4,23.836,3.661,22.7,5.012c-.912,1.086-1.158,3.952-2.9,3.952a3.326,3.326,0,0,1-2.9-1.129c-2.129-2.232-2.123-2.06-2.9-2.865a5.811,5.811,0,0,0-8.112,0A5.994,5.994,0,0,0,4.159,8.962c.24,1.848,1.673,2.22,1.159,3.385a7.057,7.057,0,0,1-1.159,1.129C3,14.567,3,15.862,3,17.429a5.149,5.149,0,0,0,5.215,5.08Z" transform="translate(-0.426 -0.43)" fill="#55b56a"/>
      <path id="Path_225" data-name="Path 225" d="M9,14.59C9,12.53,10.957,10,13.016,10s3.443,2.53,3.443,4.59a8.353,8.353,0,0,1-2.639,6.082l-.8.8L11.639,20.1C9.948,18.407,9,16.978,9,14.59Z" transform="translate(-2.984 -3.412)" fill="#8ec13f"/>
      <path id="Path_226" data-name="Path 226" d="M24.086,25.574a3,3,0,0,0,2.3,0c2.869-.761,4.3-1.141,5.164-1.721.371-.25,3.936-2.643,3.443-4.59-.487-1.92-4.851-3.141-8.033-1.721-2.623,1.17-4.525,4.172-4.016,6.311A2.679,2.679,0,0,0,24.086,25.574Z" transform="translate(-8.89 -6.364)" fill="#8ec13f"/>
      <path id="Path_227" data-name="Path 227" d="M37,29.018l3.443-6.885a7,7,0,0,1,4.59-3.6c1.158-.255,2.8-.48,3.443.162,1.426,1.426,1.139,4.025-.287,5.451l-4.877,4.877Z" transform="translate(-14.918 -6.938)" fill="#c8d952"/>
      <path id="Path_228" data-name="Path 228" d="M14.475,31.252,7.59,24.367A2.63,2.63,0,0,0,3,26.088a5.143,5.143,0,0,0,5.164,5.164Z" transform="translate(-0.426 -9.173)" fill="#c8d952"/>
      <path id="Path_229" data-name="Path 229" d="M3,37H36.278A11.475,11.475,0,0,1,24.8,48.475H14.475A11.475,11.475,0,0,1,3,37Z" transform="translate(-0.426 -14.921)" fill="#ffd782"/>
      <path id="Path_230" data-name="Path 230" d="M25,57h8.033v2.3H25Z" transform="translate(-9.803 -23.445)" fill="#f9bb4b"/>
      <path id="Path_231" data-name="Path 231" d="M35.852,21.505h-.446a9.84,9.84,0,0,0,.756-2.123c.831-3.643-.269-8.405-3.229-9.686A6.4,6.4,0,0,0,28.9,9.672c-.211.048-.465.106-.674.141.061-.076.128-.155.186-.225A5.36,5.36,0,0,0,29.8,6.923a4.5,4.5,0,0,0-2.04-4.546c-1.977-1.033-4.526.172-5.92,1.833a6.431,6.431,0,0,0-.884,1.715c-.5,1.228-.872,2.033-1.574,2.033A2.775,2.775,0,0,1,16.9,7.006C15.547,5.593,14.273,4.429,14,4.141A6.068,6.068,0,0,0,9.555,2.314a6.217,6.217,0,0,0-4.5,1.827A6.45,6.45,0,0,0,3.163,8.606a4.529,4.529,0,0,0,.9,2.117c.365.527.432.668.31.947a6.179,6.179,0,0,1-.759.718c-.118.1-.216.185-.277.242C2.025,13.867,2,15.344,2,16.91V17a5.6,5.6,0,0,0,2.307,4.506H2.574A.574.574,0,0,0,2,22.079,12.062,12.062,0,0,0,14.049,34.128h.574V35.85a.574.574,0,0,0,.574.574h8.033a.574.574,0,0,0,.574-.574V34.128h.574A12.062,12.062,0,0,0,36.426,22.079a.574.574,0,0,0-.574-.574Zm-2.7-9.348c1.246,1.246.876,3.477-.287,4.639l-4.709,4.709H25.8a16.845,16.845,0,0,1,1.355-2.557,17.032,17.032,0,0,1,5-5l-.631-.959a18.166,18.166,0,0,0-5.331,5.331,17.97,17.97,0,0,0-1.626,3.181H23.013l3.02-6.041a6.4,6.4,0,0,1,4.207-3.315C31.994,11.763,32.894,11.9,33.151,12.157ZM21.307,13.509a12.974,12.974,0,0,0-6.244,4.826,2.473,2.473,0,0,1-.456-.979c-.442-1.862,1.352-4.611,3.692-5.655a6.947,6.947,0,0,1,2.823-.569,7.359,7.359,0,0,1,3.1.651,2.3,2.3,0,0,1,1.32,1.257c.272,1.075-1.414,2.77-3.206,3.973-.785.527-2.191.9-4.992,1.643a4.625,4.625,0,0,1-1.254.213,11.854,11.854,0,0,1,5.618-4.284Zm-5.841,6.419a2.727,2.727,0,0,0,.689.088,5.774,5.774,0,0,0,1.486-.251c2.926-.776,4.392-1.165,5.336-1.8.23-.153.51-.351.814-.583l-2.063,4.123h-6.92a10.389,10.389,0,0,1,.658-1.577ZM4.3,8.458A5.565,5.565,0,0,1,5.885,4.935,5.069,5.069,0,0,1,9.554,3.461a4.928,4.928,0,0,1,3.615,1.473c.3.312,1.575,1.479,2.9,2.864a3.88,3.88,0,0,0,3.312,1.307c1.529,0,2.144-1.526,2.639-2.754a5.8,5.8,0,0,1,.7-1.4c.921-1.1,2.99-2.35,4.51-1.554a3.351,3.351,0,0,1,1.434,3.357,4.25,4.25,0,0,1-1.125,2.1c-.431.514-.876,1.045-.548,1.647.382.7,1.25.5,2.169.293a5.412,5.412,0,0,1,3.322-.041c.018.008.035.021.053.029a8.6,8.6,0,0,0-2.539.248A7.194,7.194,0,0,0,26.662,12.8c0-.014,0-.029-.007-.043a3.334,3.334,0,0,0-1.932-2.008,6.85,6.85,0,0,0-.929-.364,7.516,7.516,0,0,0,1.683-2.421A7.631,7.631,0,0,0,26.1,4.859l-1.148.014a6.394,6.394,0,0,1-2.546,5.2,8.426,8.426,0,0,0-4.573.581c-2.888,1.289-4.916,4.545-4.341,6.967a3.406,3.406,0,0,0,.969,1.757,11.523,11.523,0,0,0-.689,1.614l-2.926-2.926.4-.4a8.943,8.943,0,0,0,2.8-6.486c0-2.443-1.65-5.164-4.016-5.164a3.5,3.5,0,0,0-1.627.43L7,5.034l-.811.811L7.447,7.108a5.976,5.976,0,0,0-1.986,3.75,3.809,3.809,0,0,0-.453-.789A3.391,3.391,0,0,1,4.3,8.458ZM9.5,8.681A19.43,19.43,0,0,0,8.311,14c-.036.469-.053.942-.057,1.416A5.94,5.94,0,0,1,6.59,11.178c0-1.717,1.7-4.016,3.443-4.016,1.616,0,2.869,2.159,2.869,4.016a7.735,7.735,0,0,1-2.467,5.674l-.4.4L9.45,16.67a18.055,18.055,0,0,1,.009-2.579,18.25,18.25,0,0,1,1.113-5.007ZM4.126,13.465c.05-.048.135-.119.234-.2a4.046,4.046,0,0,0,1.056-1.109,1.841,1.841,0,0,0,.067-.2,6.778,6.778,0,0,0,.452,1.915,3.267,3.267,0,0,0-2.032.146,3.2,3.2,0,0,0-.34.172,2.836,2.836,0,0,1,.562-.726ZM3.148,17v-.088a1.92,1.92,0,0,1,1.2-1.836,2.19,2.19,0,0,1,2.414.524l5.906,5.907H9.029a6.707,6.707,0,0,1-2.008-1.53A6.846,6.846,0,0,1,5.431,16.8l-1.123.23a7.721,7.721,0,0,0,2.545,4.382A4.549,4.549,0,0,1,3.148,17ZM22.655,35.276H15.77V34.128h6.885Zm1.721-2.3H14.049A10.916,10.916,0,0,1,3.162,22.653h32.1A10.916,10.916,0,0,1,24.377,32.981ZM35.042,19.13a8.769,8.769,0,0,1-.927,2.376H29.778l3.9-3.9a4.833,4.833,0,0,0,1.367-2.88,10.557,10.557,0,0,1,0,4.4Z"/>
      <path id="Path_232" data-name="Path 232" d="M50.791,43.834a8.268,8.268,0,0,1-3.219,2.683l.491,1.037A9.4,9.4,0,0,0,51.729,44.5a9.18,9.18,0,0,0,1.224-2.448l-1.09-.356a8.04,8.04,0,0,1-1.072,2.14Z" transform="translate(-19.424 -16.922)"/>
      <path id="Path_233" data-name="Path 233" d="M43,52h1.148v1.148H43Z" transform="translate(-17.476 -21.314)"/>
    </g>
  </g>
</svg>
