<svg xmlns="http://www.w3.org/2000/svg" width="63" height="55.652" viewBox="0 0 63 55.652">
  <g id="Group_292" data-name="Group 292" transform="translate(-27.704 -150)">
    <ellipse id="Ellipse_42" data-name="Ellipse 42" cx="19.5" cy="1.5" rx="19.5" ry="1.5" transform="translate(39.704 190.652)" fill="#eb423f"/>
    <g id="smoothie" transform="translate(-19.365 134)" opacity="0.7">
      <path id="Path_250" data-name="Path 250" d="M256,24h4.093V41.738H256Z" transform="translate(-190.262 -7.318)" fill="#f7cca9"/>
      <path id="Path_251" data-name="Path 251" d="M338.515,388.256c.785.785,1.778.571,2.729,0l5.458-2.729a1.96,1.96,0,0,0,0-2.729l-2.729-2.729a1.96,1.96,0,0,0-2.729,0l-2.729,5.458C337.944,386.479,337.73,387.472,338.515,388.256Z" transform="translate(-265.272 -332.516)" fill="#eb423f"/>
      <path id="Path_252" data-name="Path 252" d="M169.738,224.56H156.093L152,200h21.832Z" transform="translate(-95.131 -168.309)" fill="#fba0c4"/>
      <path id="Path_253" data-name="Path 253" d="M152.682,138.729A5.472,5.472,0,0,1,157.458,136c3.383,0,3.411,2.729,8.187,2.729,5.458,0,6.822-2.047,6.822-2.047s1.364,1.421,1.364,4.776H152A10.6,10.6,0,0,1,152.682,138.729Z" transform="translate(-95.131 -109.766)" fill="#fba0c4"/>
      <g id="Group_220" data-name="Group 220" transform="translate(50.046 37.149)">
        <path id="Path_254" data-name="Path 254" d="M244.093,362.047c0,1.13-.916,2.729-2.047,2.729s-2.047-1.6-2.047-2.729a2.047,2.047,0,0,1,4.093,0Z" transform="translate(-225.673 -351.813)" fill="#eb423f"/>
        <path id="Path_255" data-name="Path 255" d="M316.093,266.047c0,1.13-.916,2.729-2.047,2.729s-2.047-1.6-2.047-2.729a2.047,2.047,0,0,1,4.093,0Z" transform="translate(-291.533 -264)" fill="#eb423f"/>
        <circle id="Ellipse_25" data-name="Ellipse 25" cx="0.674" cy="0.674" r="0.674" transform="translate(16.497 15.74)" fill="#eb423f"/>
        <path id="Path_256" data-name="Path 256" d="M83.713,346.354c-1.134,1.134-3.4.825-4.776,0l-6.14-4.093a2.219,2.219,0,0,1,0-3.411l4.093-4.093a2.219,2.219,0,0,1,3.411,0l4.093,6.822A4.3,4.3,0,0,1,83.713,346.354Z" transform="translate(-71.998 -327.991)" fill="#eb423f"/>
      </g>
      <path id="Path_257" data-name="Path 257" d="M144,200h23.2v2.729H144Z" transform="translate(-87.813 -168.309)" fill="#dadcde"/>
      <path id="Path_258" data-name="Path 258" d="M234.729,352A2.732,2.732,0,0,0,232,354.729c0,1.358,1.088,3.411,2.729,3.411s2.729-2.053,2.729-3.411A2.732,2.732,0,0,0,234.729,352Zm0,4.776c-.564,0-1.364-1.058-1.364-2.047a1.364,1.364,0,1,1,2.729,0C236.093,355.717,235.293,356.776,234.729,356.776Z" transform="translate(-168.309 -307.346)"/>
      <path id="Path_259" data-name="Path 259" d="M306.729,256A2.732,2.732,0,0,0,304,258.729c0,1.358,1.088,3.411,2.729,3.411s2.729-2.053,2.729-3.411A2.732,2.732,0,0,0,306.729,256Zm0,4.776c-.564,0-1.364-1.058-1.364-2.047a1.364,1.364,0,1,1,2.729,0C308.093,259.717,307.293,260.776,306.729,260.776Z" transform="translate(-234.169 -219.533)"/>
      <path id="Path_260" data-name="Path 260" d="M82.794,48.233H81.712l.882-.882a.682.682,0,1,0-.965-.965l-.882.882V46.186a.682.682,0,0,0-1.364,0v1.085l-.2-.2a2.628,2.628,0,0,0-2.234-.723L78.824,35.1h.559a.682.682,0,0,0,.682-.682V31.691a.682.682,0,0,0-.682-.682h-.021a11.621,11.621,0,0,0-8.848-10.591V16.682A.682.682,0,0,0,69.831,16H65.738a.682.682,0,0,0-.682.682v3.736a11.621,11.621,0,0,0-8.848,10.591h-.021a.682.682,0,0,0-.682.682V34.42a.682.682,0,0,0,.682.682h.559l1.285,7.711a2.792,2.792,0,0,0-1.386-.381,3.1,3.1,0,0,0-2.188,1L53.169,44.72l1.039-2.6a.682.682,0,1,0-1.267-.507l-.98,2.451-.633-.633a.682.682,0,1,0-.965.965l.6.6L48.429,46.01a.682.682,0,1,0,.507,1.267l2.794-1.118-1.366,1.366a2.9,2.9,0,0,0,0,4.376.678.678,0,0,0,.1.085l6.14,4.093.027.017a6.13,6.13,0,0,0,2.8.831l.163.005H74.607l.065,0a3.649,3.649,0,0,0,1.628-.592l5.435-2.717a.683.683,0,0,0,.177-.128,2.647,2.647,0,0,0,0-3.694l-.2-.2h1.085a.682.682,0,1,0,0-1.364ZM56.869,33.738V32.374H78.7v1.364Zm.8-2.729a6.978,6.978,0,0,1,.488-1.726l.006-.011a4.789,4.789,0,0,1,4.168-2.357,4.643,4.643,0,0,1,2.928,1.072,8.171,8.171,0,0,0,5.259,1.657c3.947,0,5.9-1.026,6.783-1.729a10.16,10.16,0,0,1,.7,3.093Zm8.755-3.884V25.973l2.729,1.364v.85A6.371,6.371,0,0,1,66.42,27.125Zm2.729-1.313L66.42,24.447V22.562l2.729,1.364Zm0-3.411-1.861-.931c.165-.008.33-.012.5-.012a10.283,10.283,0,0,1,1.362.091Zm7.53,4.234a3.969,3.969,0,0,1-1.14.756,11.819,11.819,0,0,1-5.026.89V21.828a10.278,10.278,0,0,1,6.165,4.806Zm-7.53-9.27V18.99L66.42,17.625v-.261ZM66.42,19.151l1.912.956c-.182-.009-.364-.013-.548-.013a11.665,11.665,0,0,0-1.364.081Zm-1.364,2.677v4.421a5.334,5.334,0,0,0-2.729-.7,6.077,6.077,0,0,0-3.37.97A10.277,10.277,0,0,1,65.056,21.828Zm-3.777,33.2c-.83.83-2.732.616-3.929-.095l-6.067-4.045a1.776,1.776,0,0,1-.554-1.177,1.818,1.818,0,0,1,.6-1.223L55.422,44.4a1.819,1.819,0,0,1,1.223-.6,1.767,1.767,0,0,1,1.166.544l4.048,6.746A3.614,3.614,0,0,1,61.279,55.03Zm12.75.539H62.61a5.009,5.009,0,0,0,.419-5.184l-3.258-5.429L58.129,35.1H77.44Zm6.984-3.113s-5.5,2.76-5.547,2.789l.266-1.6a.682.682,0,1,0,.239-1.321h-.019l.746-4.476a1.286,1.286,0,0,1,1.519.185l2.729,2.729a1.284,1.284,0,0,1,.066,1.692Z"/>
      <circle id="Ellipse_26" data-name="Ellipse 26" cx="0.682" cy="0.682" r="0.682" transform="translate(77.336 50.28)"/>
      <ellipse id="Ellipse_27" data-name="Ellipse 27" cx="0.843" cy="0.674" rx="0.843" ry="0.674" transform="translate(61.486 37.717)"/>
      <circle id="Ellipse_28" data-name="Ellipse 28" cx="0.674" cy="0.674" r="0.674" transform="translate(70.589 44.797)"/>
      <ellipse id="Ellipse_29" data-name="Ellipse 29" cx="0.843" cy="0.674" rx="0.843" ry="0.674" transform="translate(61.486 42.775)"/>
      <circle id="Ellipse_30" data-name="Ellipse 30" cx="0.674" cy="0.674" r="0.674" transform="translate(70.589 49.518)"/>
      <circle id="Ellipse_31" data-name="Ellipse 31" cx="0.674" cy="0.674" r="0.674" transform="translate(66.543 52.889)"/>
      <circle id="Ellipse_32" data-name="Ellipse 32" cx="0.674" cy="0.674" r="0.674" transform="translate(65.869 39.74)"/>
      <circle id="Ellipse_33" data-name="Ellipse 33" cx="0.682" cy="0.682" r="0.682" transform="translate(54.822 48.008)"/>
      <circle id="Ellipse_34" data-name="Ellipse 34" cx="0.674" cy="0.674" r="0.674" transform="translate(52.72 49.518)"/>
      <circle id="Ellipse_35" data-name="Ellipse 35" cx="0.682" cy="0.682" r="0.682" transform="translate(56.187 45.961)"/>
      <circle id="Ellipse_36" data-name="Ellipse 36" cx="0.674" cy="0.674" r="0.674" transform="translate(55.417 50.866)"/>
      <circle id="Ellipse_37" data-name="Ellipse 37" cx="0.674" cy="0.674" r="0.674" transform="translate(57.44 48.843)"/>
      <circle id="Ellipse_38" data-name="Ellipse 38" cx="0.674" cy="0.674" r="0.674" transform="translate(58.114 51.54)"/>
    </g>
  </g>
</svg>
