<svg xmlns="http://www.w3.org/2000/svg" width="63" height="44" viewBox="0 0 63 44">
  <g id="Group_282" data-name="Group 282" transform="translate(-201.99 -63.261)">
    <ellipse id="Ellipse_56" data-name="Ellipse 56" cx="19.5" cy="1.5" rx="19.5" ry="1.5" transform="translate(213.99 92.261)" fill="#cb2527"/>
    <g id="filled_outline" data-name="filled outline" transform="translate(178.433 -8.739)" opacity="0.7">
      <path id="Path_261" data-name="Path 261" d="M91.044,189.046a6.551,6.551,0,0,1,4.088-1.9l1.664-.139a14.674,14.674,0,0,1,6.486.927,8.424,8.424,0,0,1,5.364,7.09l.137,1.487-19.128.09-.334-1.338A6.55,6.55,0,0,1,91.044,189.046Z" transform="translate(-60.103 -106.094)" fill="#d78e0c"/>
      <path id="Path_262" data-name="Path 262" d="M166.7,230.444l-.865-1.3a6,6,0,0,0-5.006-2.679H159.4l1.111-1.481a.617.617,0,1,0-.987-.74l-2.686,3.733a.617.617,0,1,0,1.031.679l.63-.956h1.186l-.183.278a.617.617,0,1,0,1.031.679l.622-.945a4.771,4.771,0,0,1,3.654,2.118l.221.331-9.427-.064a2.386,2.386,0,0,1-1.673-4.073l.972-.971a.617.617,0,1,0-.873-.873l-.972.972a3.62,3.62,0,0,0,2.538,6.18l10.589.072h0a.617.617,0,0,0,.513-.959Z" transform="translate(-118.127 -140.276)" fill="#b2750a"/>
      <path id="Path_263" data-name="Path 263" d="M58.548,274.654,60.34,276v3.7l-1.792,1.344a8.257,8.257,0,0,1-6.957,1.4,4.742,4.742,0,0,1,0-9.2A8.257,8.257,0,0,1,58.548,274.654Z" transform="translate(-22.149 -185.499)" fill="#ee9d0d"/>
      <path id="Path_264" data-name="Path 264" d="M212.425,297.068H208v3.7h4.425a3.248,3.248,0,1,0,0-3.7Z" transform="translate(-169.809 -206.57)" fill="#cdccc8"/>
      <circle id="Ellipse_44" data-name="Ellipse 44" cx="0.617" cy="0.617" r="0.617" transform="translate(32.021 91.655)" fill="#c7830b"/>
      <circle id="Ellipse_45" data-name="Ellipse 45" cx="0.617" cy="0.617" r="0.617" transform="translate(30.787 89.354)" fill="#c7830b"/>
      <circle id="Ellipse_46" data-name="Ellipse 46" cx="0.617" cy="0.617" r="0.617" transform="translate(32.021 84.34)" fill="#b2750a"/>
      <circle id="Ellipse_47" data-name="Ellipse 47" cx="0.617" cy="0.617" r="0.617" transform="translate(39.347 82.568)" fill="#b2750a"/>
      <circle id="Ellipse_48" data-name="Ellipse 48" cx="0.617" cy="0.617" r="0.617" transform="translate(35.723 91.732)" fill="#c7830b"/>
      <path id="Path_265" data-name="Path 265" d="M52.979,328l-.237.949a2.005,2.005,0,0,1-1.945,1.519H45.289a2.005,2.005,0,0,1-1.945-1.519L43.106,328H32l1.234,8.638H62.851L64.085,328Z" transform="translate(-7.383 -236.255)" fill="#cb2527"/>
      <path id="Path_266" data-name="Path 266" d="M310.831,200l-2.495.356-2.945-2.945.356-2.495a9.288,9.288,0,0,1,4.416-6.651,5.334,5.334,0,0,1,7.318,7.318A9.288,9.288,0,0,1,310.831,200Z" transform="translate(-259.689 -106.602)" fill="#ee9d0d"/>
      <path id="Path_267" data-name="Path 267" d="M227.026,322.4l3.52-3.52L227.6,315.94l-3.52,3.52a3.656,3.656,0,1,0,2.945,2.945Z" transform="translate(-181.898 -225.125)" fill="#dcdbd6"/>
      <path id="Path_268" data-name="Path 268" d="M255.128,350.652a2.082,2.082,0,0,1-3.351,2.37,1.959,1.959,0,0,1-.227-.269,2.082,2.082,0,0,0,2.976-2.668l3.538-3.536.584.584Z" transform="translate(-210 -253.374)" fill="#cdccc8"/>
      <g id="Group_221" data-name="Group 221" transform="translate(48.935 86.194)">
        <circle id="Ellipse_49" data-name="Ellipse 49" cx="0.694" cy="0.694" r="0.694" transform="translate(2.945 0)" fill="#c7830b"/>
        <circle id="Ellipse_50" data-name="Ellipse 50" cx="0.694" cy="0.694" r="0.694" transform="translate(2.945 2.945)" fill="#c7830b"/>
        <circle id="Ellipse_51" data-name="Ellipse 51" cx="0.694" cy="0.694" r="0.694" transform="translate(0 2.945)" fill="#c7830b"/>
      </g>
      <path id="Path_269" data-name="Path 269" d="M73.851,401.234H72.617a.617.617,0,1,1,0-1.234h1.234a.617.617,0,1,1,0,1.234Z" transform="translate(-44.298 -302.702)" fill="#ea2b2d"/>
      <path id="Path_270" data-name="Path 270" d="M124.319,401.234h-3.7a.617.617,0,1,1,0-1.234h3.7a.617.617,0,1,1,0,1.234Z" transform="translate(-88.596 -302.702)" fill="#ea2b2d"/>
      <path id="Path_271" data-name="Path 271" d="M396.617,78.787A.617.617,0,0,1,396,78.17a2.066,2.066,0,0,1,.412-1.268.933.933,0,0,0,0-1.167,2.156,2.156,0,0,1,0-2.535.865.865,0,0,0,.2-.583.617.617,0,1,1,1.234,0,2.066,2.066,0,0,1-.412,1.268.933.933,0,0,0,0,1.167,2.156,2.156,0,0,1,0,2.536.864.864,0,0,0-.2.583A.617.617,0,0,1,396.617,78.787Z" transform="translate(-343.309)" fill="#ffc864"/>
      <path id="Path_272" data-name="Path 272" d="M440.614,93.552a.617.617,0,0,1-.617-.617,2.066,2.066,0,0,1,.412-1.268.933.933,0,0,0,0-1.167A2.066,2.066,0,0,1,440,89.233a2.03,2.03,0,0,1,.184-.878.617.617,0,0,1,1.118.522.788.788,0,0,0-.068.356.865.865,0,0,0,.2.583,2.156,2.156,0,0,1,0,2.536.864.864,0,0,0-.2.583A.617.617,0,0,1,440.614,93.552Z" transform="translate(-383.912 -14.764)" fill="#ffc864"/>
      <path id="Path_273" data-name="Path 273" d="M352.614,93.552a.617.617,0,0,1-.617-.617,2.066,2.066,0,0,1,.412-1.268.933.933,0,0,0,0-1.167A2.066,2.066,0,0,1,352,89.233a2.03,2.03,0,0,1,.184-.878.617.617,0,0,1,1.118.522.788.788,0,0,0-.068.356.865.865,0,0,0,.2.583,2.156,2.156,0,0,1,0,2.536.864.864,0,0,0-.2.583A.617.617,0,0,1,352.614,93.552Z" transform="translate(-302.699 -14.764)" fill="#ffc864"/>
      <circle id="Ellipse_52" data-name="Ellipse 52" cx="0.617" cy="0.617" r="0.617" transform="translate(30.787 89.354)"/>
      <circle id="Ellipse_53" data-name="Ellipse 53" cx="0.617" cy="0.617" r="0.617" transform="translate(32.021 84.34)"/>
      <circle id="Ellipse_54" data-name="Ellipse 54" cx="0.617" cy="0.617" r="0.617" transform="translate(39.347 82.568)"/>
      <path id="Path_274" data-name="Path 274" d="M57.427,180.766a5.942,5.942,0,0,0-7.269-.895,9.9,9.9,0,0,0-3.026,2.818A8.989,8.989,0,0,0,43.4,180a15.381,15.381,0,0,0-6.759-.966l-1.664.139a7.164,7.164,0,0,0-6.569,7.014,5.332,5.332,0,0,0-3.034,3.672h-.758a.617.617,0,0,0-.611.7L25.24,199.2a.617.617,0,0,0,.611.53H55.468a.617.617,0,0,0,.611-.53l1.234-8.638a.616.616,0,0,0-.423-.675,9.959,9.959,0,0,0,1.432-1.853,5.942,5.942,0,0,0-.895-7.269Zm-12.856,15.51a1.465,1.465,0,1,1-2.785.713.617.617,0,0,0-.582-.582,1.465,1.465,0,1,1,.713-2.785.617.617,0,0,0,.7-.121l3.083-3.083,2.072,2.072-3.083,3.084A.617.617,0,0,0,44.571,196.275Zm.55-7.021-3.094,3.094a2.7,2.7,0,0,0-1.4-.022H38.808v-2.481h3.808a.617.617,0,0,0,.582-.411,1.232,1.232,0,0,1,1.972-.519Zm-13.743-7.135a5.94,5.94,0,0,1,3.7-1.717l1.664-.139a14.141,14.141,0,0,1,6.214.889,7.763,7.763,0,0,1,3.491,2.668,9.884,9.884,0,0,0-.742,1.906,6.035,6.035,0,0,0-3-.8h-1.43l1.111-1.481a.617.617,0,1,0-.987-.74l-2.748,3.711a.617.617,0,1,0,1,.722l.706-.978h1.2l-.183.278a.617.617,0,1,0,1.031.679l.622-.944a4.8,4.8,0,0,1,2.41.848l-.082.572a2.468,2.468,0,0,0-3.135,1.023H38.4l-1.627-1.221a8.928,8.928,0,0,0-1.651-.98,2.422,2.422,0,0,1-.012-.245,2.371,2.371,0,0,1,.7-1.687l.972-.971a.617.617,0,0,0-.873-.873l-.972.972a3.593,3.593,0,0,0-1.053,2.347,8.839,8.839,0,0,0-4.216-.155,5.888,5.888,0,0,1,1.714-3.679Zm-1.786,4.959a7.609,7.609,0,0,1,6.437,1.3l1.545,1.159v2.749a1.386,1.386,0,0,1-.892-.692.617.617,0,0,0-.326-1.13l-.034-.138a.617.617,0,0,0-.6-.467H26.652a4.109,4.109,0,0,1,2.94-2.78Zm-4.264,4.014h9.913l.12.482a2.618,2.618,0,0,0,2.544,1.986h1.062a2.7,2.7,0,0,0,1.662,4,2.691,2.691,0,0,0,.438.934H26.386Zm29.6,7.4h-9.5a2.706,2.706,0,0,0,.416-2.331l3.094-3.094,2.291-.327a9.889,9.889,0,0,0,4.23-1.652h.532Zm2.331-11.1a8.635,8.635,0,0,1-6.209,4.123l-2.189.313-2.508-2.508.313-2.189c.013-.093.028-.184.044-.276v-.005a8.633,8.633,0,0,1,4.077-5.928,4.717,4.717,0,0,1,6.471,6.471Z" transform="translate(0 -98.731)"/>
      <path id="Path_275" data-name="Path 275" d="M385.679,256.24a.694.694,0,1,0,.982,0A.694.694,0,0,0,385.679,256.24Z" transform="translate(-333.597 -169.843)"/>
      <path id="Path_276" data-name="Path 276" d="M385.679,294.419a.694.694,0,1,0,.982,0A.694.694,0,0,0,385.679,294.419Z" transform="translate(-333.597 -205.077)"/>
      <circle id="Ellipse_55" data-name="Ellipse 55" cx="0.694" cy="0.694" r="0.694" transform="translate(48.935 89.139)"/>
      <path id="Path_277" data-name="Path 277" d="M73.851,400H72.617a.617.617,0,1,0,0,1.234h1.234a.617.617,0,1,0,0-1.234Z" transform="translate(-44.298 -302.702)"/>
      <path id="Path_278" data-name="Path 278" d="M124.319,400h-3.7a.617.617,0,1,0,0,1.234h3.7a.617.617,0,1,0,0-1.234Z" transform="translate(-88.596 -302.702)"/>
      <path id="Path_279" data-name="Path 279" d="M396,78.17a.617.617,0,1,0,1.234,0,.865.865,0,0,1,.2-.583,2.156,2.156,0,0,0,0-2.536.933.933,0,0,1,0-1.166,2.067,2.067,0,0,0,.412-1.268.617.617,0,1,0-1.234,0,.864.864,0,0,1-.2.583,2.156,2.156,0,0,0,0,2.536.933.933,0,0,1,0,1.167A2.066,2.066,0,0,0,396,78.17Z" transform="translate(-343.309)"/>
      <path id="Path_280" data-name="Path 280" d="M440,92.935a.617.617,0,1,0,1.234,0,.865.865,0,0,1,.2-.583,2.156,2.156,0,0,0,0-2.536.865.865,0,0,1-.2-.583.788.788,0,0,1,.068-.356.617.617,0,0,0-1.118-.522,2.03,2.03,0,0,0-.183.878,2.066,2.066,0,0,0,.412,1.268.933.933,0,0,1,0,1.167A2.066,2.066,0,0,0,440,92.935Z" transform="translate(-383.912 -14.764)"/>
      <path id="Path_281" data-name="Path 281" d="M352,92.935a.617.617,0,1,0,1.234,0,.865.865,0,0,1,.2-.583,2.156,2.156,0,0,0,0-2.536.865.865,0,0,1-.2-.583.788.788,0,0,1,.068-.356.617.617,0,1,0-1.118-.522,2.03,2.03,0,0,0-.183.878,2.066,2.066,0,0,0,.412,1.268.933.933,0,0,1,0,1.167A2.066,2.066,0,0,0,352,92.935Z" transform="translate(-302.699 -14.764)"/>
    </g>
  </g>
</svg>
